<svg xmlns="http://www.w3.org/2000/svg" version="1.1" xmlns:xlink="http://www.w3.org/1999/xlink" xmlns:svgjs="http://svgjs.dev/svgjs" width="1000" height="1000"><g clip-path="url(#SvgjsClipPath1098)"><rect width="1000" height="1000" fill="#fef2df"></rect><g transform="matrix(7.8125,0,0,7.8125,0,0)"><svg xmlns="http://www.w3.org/2000/svg" version="1.1" xmlns:xlink="http://www.w3.org/1999/xlink" xmlns:svgjs="http://svgjs.dev/svgjs" width="128" height="128"><svg id="a" data-name="Layer 1" xmlns="http://www.w3.org/2000/svg" width="128" height="128" viewBox="0 0 128 128">
  <path d="m90.82,113.99c-.45,0-.82-.4-.82-.9s.37-.9.82-.9h3.36c.45,0,.82.4.82.9s-.37.9-.82.9h-3.36Z" fill="#5b4068" stroke-width="0"></path>
  <path d="m25.81,114c-.45,0-.81-.4-.81-.9s.36-.9.81-.9h10.37c.45,0,.81.4.81.89s-.36.9-.81.9h-10.37Z" fill="#5b4068" stroke-width="0"></path>
  <path d="m23.26,114h-.52c-.41,0-.74-.4-.74-.9s.33-.9.74-.9h.52c.41,0,.74.4.74.9s-.33.9-.74.9Z" fill="#5b4068" stroke-width="0"></path>
  <g>
    <path d="m91.64,50.95l-5.11,61.25h-1.21l.31-4.28c.04-.5-.34-.93-.83-.97-.49-.04-.93.34-.96.83l-.32,4.42h-1.15l.1-1.65c.03-.49-.35-.92-.84-.95-.5-.03-.92.35-.95.84l-.11,1.76h-1.68l3.07-61.25h1.36l-.12,2.02c-.03.5.35.93.84.95h.05c.48,0,.87-.37.9-.85l.13-2.13h6.53Z" fill="#f15c62" stroke-width="0"></path>
    <polygon points="80.15 50.95 77.08 112.2 69.43 112.2 70.45 50.95 80.15 50.95" fill="#fcfcfc" stroke-width="0"></polygon>
    <polygon points="68.65 50.95 67.63 112.2 59.98 112.2 58.95 50.95 68.65 50.95" fill="#f15c62" stroke-width="0"></polygon>
    <path d="m58.17,112.2h-7.65l-1.02-20.42-2.04-40.82h5.94l.14,5.02c.01.49.41.88.9.88h.03c.5-.01.89-.43.88-.92l-.14-4.97h1.95l1.02,61.25Z" fill="#fcfcfc" stroke-width="0"></path>
    <path d="m45.65,50.95h-9.69l5.11,61.25h3.72l-.2-3.11c-.03-.5.35-.93.84-.95.49-.03.93.34.96.84l.21,3.22h2.13l-3.07-61.25Zm-1.88,21.15c-.03-.49.35-.92.85-.95.49-.03.92.35.95.85l.09,1.5c.03.5-.35.92-.84.95-.02,0-.04,0-.05,0-.48,0-.87-.37-.9-.85l-.09-1.5Zm1.62,35.52s-.04,0-.06,0c-.47,0-.87-.37-.9-.85l-.02-.3c-.03-.5.34-.92.84-.95.49-.03.93.34.96.84l.02.3c.03.49-.35.92-.84.95Zm.02-23.04h-.05c-.47,0-.87-.37-.9-.85l-.43-7.14c-.03-.5.35-.92.85-.95.5-.03.92.35.95.85l.42,7.14c.03.49-.35.92-.85.95Z" fill="#f15c62" stroke-width="0"></path>
    <path d="m89.9,82.45s-6.98,24.01-49.97,26.34l.31,4.22h46.9l2.76-30.56Z" fill="#5b4068" opacity=".1" stroke-width="0"></path>
    <path d="m44.86,87.56h3.45l-1.06-20.69h-3.16c-1.65,0-2.96,1.38-2.88,3.03l.76,14.93c.08,1.53,1.34,2.74,2.88,2.74Z" fill="#fcfcfc" opacity=".2" stroke-width="0"></path>
    <path d="m46.24,106.66c.03.49-.35.92-.84.95-.02,0-.04,0-.06,0-.47,0-.87-.37-.9-.85l-.02-.3c-.03-.5.34-.92.84-.95.49-.03.93.34.96.84l.02.3Z" fill="#5b4068" stroke-width="0"></path>
    <path d="m46.26,83.63c.03.49-.35.92-.85.95h-.05c-.47,0-.87-.37-.9-.85l-.43-7.14c-.03-.5.35-.92.85-.95.5-.03.92.35.95.85l.42,7.14Z" fill="#5b4068" stroke-width="0"></path>
    <path d="m45.66,73.49c.03.5-.35.92-.84.95-.02,0-.04,0-.05,0-.48,0-.87-.37-.9-.85l-.09-1.5c-.03-.49.35-.92.85-.95.49-.03.92.35.95.85l.09,1.5Z" fill="#5b4068" stroke-width="0"></path>
    <path d="m87.86,47.17c0,.3-.24.54-.54.54h-.36c-.3,0-.54-.24-.54-.54s.24-.54.54-.54h.36c.3,0,.54.24.54.54Z" fill="#5b4068" stroke-width="0"></path>
    <g>
      <path d="m88.72,43.47c.01-.11.04-.21.06-.31.04-.15.02-.3-.06-.42-.07-.12-.19-.22-.35-.26-.27-.07-.54.06-.66.3-.01.03-.03.06-.04.1-.02.06-.03.11-.04.17-.11.5-.12.99-.04,1.46-.7.28-1.5.29-2.24-.04-.7-.31-1.23-.86-1.5-1.55-.27-.69-.25-1.45.06-2.13.31-.68.88-1.2,1.59-1.47.35-.13.71-.19,1.06-.18.2,0,.4.03.59.07.18.04.36.1.54.18.03.01.05.02.08.03.12.03.25.03.36-.01.14-.05.25-.15.32-.29.13-.28,0-.61-.29-.74-.14-.06-.28-.11-.42-.16.01-.05.02-.1.03-.15.19-.72.65-1.33,1.31-1.71,1.36-.79,3.12-.35,3.92.97.39.64.5,1.39.32,2.11-.07.29-.19.55-.35.8-.13-.05-.27-.09-.41-.13-.31-.08-.62.1-.7.4-.04.15-.01.3.06.42.04.07.1.13.16.18.05.04.12.07.18.09.16.04.31.09.45.16.18.08.36.18.52.3.91.66,1.37,1.82,1.06,2.95-.4,1.49-1.97,2.38-3.5,1.98-.74-.19-1.36-.65-1.74-1.3-.05-.08-.09-.16-.13-.24-.09-.18-.15-.37-.19-.56-.05-.24-.08-.48-.06-.72l.03-.28Z" fill="#fee996" stroke-width="0"></path>
      <path d="m88.02,43.84c.99.84,2.63,2.04,4.31,1.48,2.04-.67.52-3.92-.4-4.42,2.16.11,3.63,3.42,2.57,4.93-1.13,1.61-3.39,2.02-5.04.92-.66-.44-1.2-2.23-1.45-2.91Z" fill="#e5b572" opacity=".75" stroke-width="0"></path>
      <path d="m86.46,38.85c.06-.54.88-1.53,1.22-2.01,1.11-1.57,3.42-2.12,4.92-.89,2.39,1.95,1.44,4.73-.21,4.4-.08-.02-.09.13-.14.19.45-1.33.88-2.52-.68-3.27-1.69-.82-3.84.41-3.12,1.59.26.43-1.97-.04-1.98,0Z" fill="#e5b572" opacity=".75" stroke-width="0"></path>
      <path d="m87.94,45.57c.49.99,1.41,1.77,2.58,2.08,2.14.55,4.33-.7,4.9-2.78.43-1.57-.19-3.17-1.44-4.1.2-.33.36-.69.46-1.07.26-1.01.11-2.06-.44-2.96-1.13-1.85-3.6-2.46-5.49-1.36-.69.4-1.23.98-1.56,1.67-.11.23-.2.48-.27.73-.02.08-.04.16-.05.23-.51-.01-1.03.07-1.52.26-.97.36-1.75,1.06-2.19,1.97-.01.03-.03.06-.04.08-.44.95-.47,2.01-.09,2.99.38.98,1.13,1.75,2.1,2.18,1.01.44,2.1.44,3.06.08Zm-4.09-2.66c-.27-.69-.25-1.45.06-2.13.31-.68.88-1.2,1.59-1.47.35-.13.71-.19,1.06-.18.2,0,.4.03.59.07.18.04.36.1.54.18.03.01.05.02.08.03.12.03.25.03.36-.01.14-.05.25-.15.32-.29.13-.28,0-.61-.29-.74-.14-.06-.28-.11-.42-.16.01-.05.02-.1.03-.15.19-.72.65-1.33,1.31-1.71,1.36-.79,3.12-.35,3.92.97.39.64.5,1.39.32,2.11-.07.29-.19.55-.35.8-.13-.05-.27-.09-.41-.13-.31-.08-.62.1-.7.4-.04.15-.01.3.06.42.04.07.1.13.16.18.05.04.12.07.18.09.16.04.31.09.45.16.18.08.36.18.52.3.91.66,1.37,1.82,1.06,2.95-.4,1.49-1.97,2.38-3.5,1.98-.74-.19-1.36-.65-1.74-1.3-.05-.08-.09-.16-.13-.24-.09-.18-.15-.37-.19-.56-.05-.24-.08-.48-.06-.72,0-.09.01-.18.03-.28.01-.11.04-.21.06-.31.04-.15.02-.3-.06-.42-.07-.12-.19-.22-.35-.26-.27-.07-.54.06-.66.3-.01.03-.03.06-.04.1-.02.06-.03.11-.04.17-.11.5-.12.99-.04,1.46-.7.28-1.5.29-2.24-.04-.7-.31-1.23-.86-1.5-1.55Z" fill="#5b4068" stroke-width="0"></path>
      <ellipse cx="86.26" cy="41.73" rx="1.28" ry=".86" transform="translate(32.66 121.16) rotate(-81.81)" fill="#fcfcfc" opacity=".4" stroke-width="0"></ellipse>
    </g>
    <g>
      <path d="m55.72,39.83c-.1.05-.2.09-.3.13-.15.05-.26.16-.32.29-.06.13-.08.28-.02.43.09.26.36.4.63.36.03,0,.07-.01.1-.03.06-.02.11-.04.17-.06.48-.19.9-.46,1.26-.8.63.41,1.09,1.05,1.24,1.83.13.73-.03,1.47-.47,2.09-.43.61-1.09,1.02-1.84,1.15-.75.13-1.51-.03-2.14-.45-.3-.21-.56-.46-.76-.75-.11-.16-.2-.33-.27-.51-.07-.17-.12-.35-.16-.53,0-.03-.01-.05-.02-.08-.04-.12-.12-.22-.21-.28-.12-.08-.27-.12-.43-.09-.31.06-.52.35-.46.65.03.15.06.29.1.42-.05.02-.1.04-.14.06-.72.26-1.5.23-2.19-.09-1.43-.64-2.06-2.3-1.4-3.7.32-.68.89-1.19,1.61-1.45.28-.1.58-.16.87-.17.03.13.07.27.12.4.11.29.44.44.73.34.15-.05.26-.16.32-.29.04-.07.06-.15.06-.23,0-.07,0-.13-.03-.2-.05-.15-.1-.3-.12-.45-.03-.2-.05-.39-.04-.59.04-1.11.76-2.13,1.9-2.53,1.49-.52,3.13.24,3.66,1.69.26.7.22,1.46-.11,2.13-.04.08-.08.16-.13.24-.1.17-.23.33-.36.47-.17.18-.36.33-.57.46l-.25.13Z" fill="#fee996" stroke-width="0"></path>
      <path d="m56.44,40.18c.15-1.27.23-3.27-1.18-4.31-1.72-1.26-3.61,1.79-3.52,2.82-1.13-1.8.84-4.86,2.71-4.86,2,0,3.63,1.58,3.63,3.54,0,.77-1.2,2.23-1.64,2.81Z" fill="#e5b572" opacity=".75" stroke-width="0"></path>
      <path d="m53.09,44.26c-.49.25-1.79.16-2.38.16-1.96,0-3.72-1.55-3.54-3.45.29-3.02,3.19-3.83,3.84-2.32.03.07.16,0,.24,0-1.39.39-2.63.71-2.38,2.4.27,1.82,2.52,2.85,3.12,1.61.22-.45,1.08,1.6,1.11,1.6Z" fill="#e5b572" opacity=".75" stroke-width="0"></path>
      <path d="m57.94,39.26c.56-.96.7-2.13.3-3.25-.74-2.03-3.04-3.09-5.12-2.37-1.57.54-2.57,1.95-2.65,3.48-.39.02-.79.1-1.16.24-1,.36-1.8,1.08-2.25,2.03-.93,1.96-.05,4.28,1.96,5.18.73.33,1.52.43,2.29.31.26-.04.52-.1.77-.2.08-.03.15-.06.23-.09.28.42.64.78,1.08,1.08.85.58,1.88.81,2.9.65.03,0,.06-.01.09-.02,1.05-.19,1.97-.76,2.58-1.62.61-.86.84-1.89.65-2.92-.2-1.06-.82-1.94-1.66-2.51Zm.07,4.79c-.43.61-1.09,1.02-1.84,1.15-.75.13-1.51-.03-2.14-.45-.3-.21-.56-.46-.76-.75-.11-.16-.2-.33-.27-.51-.07-.17-.12-.35-.16-.53,0-.03-.01-.05-.02-.08-.04-.12-.12-.22-.21-.28-.12-.08-.27-.12-.43-.09-.31.06-.52.35-.46.65.03.15.06.29.1.42-.05.02-.1.04-.14.06-.72.26-1.5.23-2.19-.09-1.43-.64-2.06-2.3-1.4-3.7.32-.68.89-1.19,1.61-1.45.28-.1.58-.16.87-.17.03.13.07.27.12.4.11.29.44.44.73.34.15-.05.26-.16.32-.29.04-.07.06-.15.06-.23,0-.07,0-.13-.03-.2-.05-.15-.1-.3-.12-.45-.03-.2-.05-.39-.04-.59.04-1.11.76-2.13,1.9-2.53,1.49-.52,3.13.24,3.66,1.69.26.7.22,1.46-.11,2.13-.04.08-.08.16-.13.24-.1.17-.23.33-.36.47-.17.18-.36.33-.57.46-.08.05-.16.09-.25.13-.1.05-.2.09-.3.13-.15.05-.26.16-.32.29-.06.13-.08.28-.02.43.09.26.36.4.63.36.03,0,.07-.01.1-.03.06-.02.11-.04.17-.06.48-.19.9-.46,1.26-.8.63.41,1.09,1.05,1.24,1.83.13.73-.03,1.47-.47,2.09Z" fill="#5b4068" stroke-width="0"></path>
      <ellipse cx="55.65" cy="42.79" rx="1.3" ry=".84" transform="translate(-12.96 27.94) rotate(-25.35)" fill="#fcfcfc" opacity=".4" stroke-width="0"></ellipse>
    </g>
    <g>
      <path d="m77.6,33.43c-.11-.02-.21-.05-.32-.08-.15-.05-.31-.03-.44.03-.13.07-.24.18-.28.32-.09.26.03.53.27.66.03.02.06.03.1.04.06.02.11.04.17.05.5.14,1.01.17,1.5.12.24.7.21,1.48-.16,2.18-.35.66-.95,1.15-1.68,1.37-.73.22-1.5.16-2.18-.18-.68-.34-1.18-.92-1.41-1.63-.11-.34-.15-.7-.13-1.05.01-.19.05-.38.1-.57.05-.18.12-.35.21-.51.01-.03.03-.05.03-.08.04-.12.04-.24,0-.35-.04-.14-.14-.25-.28-.33-.28-.14-.63-.04-.77.24-.07.13-.13.26-.18.4-.05-.01-.1-.03-.15-.04-.73-.22-1.33-.71-1.68-1.37-.73-1.36-.19-3.05,1.21-3.76.68-.35,1.45-.41,2.18-.19.29.09.56.22.8.39-.06.12-.11.25-.15.39-.1.29.07.61.37.7.15.05.31.03.43-.03.07-.03.14-.09.19-.15.04-.05.08-.11.1-.17.05-.15.11-.3.19-.43.1-.18.21-.34.33-.49.73-.85,1.94-1.23,3.09-.87,1.5.48,2.32,2.05,1.83,3.52-.24.71-.74,1.29-1.42,1.62-.08.04-.17.08-.26.11-.19.07-.39.13-.58.16-.24.04-.49.05-.74.02l-.28-.04Z" fill="#fee996" stroke-width="0"></path>
      <path d="m77.95,34.13c.91-.91,2.23-2.45,1.76-4.11-.57-2.02-3.98-.73-4.55.13.24-2.1,3.71-3.34,5.19-2.23,1.59,1.19,1.88,3.41.65,4.96-.49.61-2.35,1.05-3.06,1.25Z" fill="#e5b572" opacity=".75" stroke-width="0"></path>
      <path d="m72.74,35.36c-.55-.09-1.52-.94-1.98-1.3-1.55-1.17-1.97-3.45-.64-4.84,2.13-2.22,4.92-1.13,4.49.45-.02.08.13.1.18.15-1.34-.52-2.53-1-3.39.48-.93,1.6.2,3.76,1.46,3.13.46-.23-.15,1.91-.12,1.93Z" fill="#e5b572" opacity=".75" stroke-width="0"></path>
      <path d="m79.71,34.3c1.04-.42,1.89-1.27,2.27-2.4.68-2.05-.47-4.26-2.57-4.92-1.58-.5-3.26.01-4.28,1.17-.32-.22-.68-.39-1.07-.51-1.02-.31-2.11-.22-3.05.26-1.96,1-2.72,3.36-1.7,5.27.37.69.93,1.25,1.62,1.62.23.12.48.23.73.3.08.02.16.05.24.07-.04.5.02,1,.18,1.49.31.97.98,1.76,1.89,2.24.03.02.06.03.08.04.95.48,2.04.57,3.06.26,1.02-.31,1.85-1,2.35-1.92.51-.96.57-2.02.26-2.97Zm-2.95,3.83c-.73.22-1.5.16-2.18-.18-.68-.34-1.18-.92-1.41-1.63-.11-.34-.15-.7-.13-1.05.01-.19.05-.38.1-.57.05-.18.12-.35.21-.51.01-.03.03-.05.03-.08.04-.12.04-.24,0-.35-.04-.14-.14-.25-.28-.33-.28-.14-.63-.04-.77.24-.07.13-.13.26-.18.4-.05-.01-.1-.03-.15-.04-.73-.22-1.33-.71-1.68-1.37-.73-1.36-.19-3.05,1.21-3.76.68-.35,1.45-.41,2.18-.19.29.09.56.22.8.39-.06.12-.11.25-.15.39-.1.29.07.61.37.7.15.05.31.03.43-.03.07-.03.14-.09.19-.15.04-.05.08-.11.1-.17.05-.15.11-.3.19-.43.1-.18.21-.34.33-.49.73-.85,1.94-1.23,3.09-.87,1.5.48,2.32,2.05,1.83,3.52-.24.71-.74,1.29-1.42,1.62-.08.04-.17.08-.26.11-.19.07-.39.13-.58.16-.24.04-.49.05-.74.02-.09,0-.19-.02-.28-.04-.11-.02-.21-.05-.32-.08-.15-.05-.31-.03-.44.03-.13.07-.24.18-.28.32-.09.26.03.53.27.66.03.02.06.03.1.04.06.02.11.04.17.05.5.14,1.01.17,1.5.12.24.7.21,1.48-.16,2.18-.35.66-.95,1.15-1.68,1.37Z" fill="#5b4068" stroke-width="0"></path>
      <ellipse cx="75.68" cy="35.73" rx=".84" ry="1.31" transform="translate(27.03 103.82) rotate(-79.72)" fill="#fcfcfc" opacity=".4" stroke-width="0"></ellipse>
    </g>
    <g>
      <path d="m65.3,25.18c-.11-.02-.21-.05-.32-.08-.15-.05-.31-.03-.44.03-.13.07-.24.18-.28.32-.09.26.03.53.27.66.03.02.06.03.1.04.06.02.11.04.17.05.5.14,1.01.17,1.5.12.24.7.21,1.48-.16,2.18-.35.66-.95,1.15-1.68,1.37-.73.22-1.5.16-2.18-.18-.68-.34-1.18-.92-1.41-1.63-.11-.34-.15-.7-.13-1.05.01-.19.05-.38.1-.57.05-.18.12-.35.21-.51.01-.03.03-.05.03-.08.04-.12.04-.24,0-.35-.04-.14-.14-.25-.28-.33-.28-.14-.63-.04-.77.24-.07.13-.13.26-.18.4-.05-.01-.1-.03-.15-.04-.73-.22-1.33-.71-1.68-1.37-.73-1.36-.19-3.05,1.21-3.76.68-.35,1.45-.41,2.18-.19.29.09.56.22.8.39-.06.12-.11.25-.15.39-.1.29.07.61.37.7.15.05.31.03.43-.03.07-.03.14-.09.19-.15.04-.05.08-.11.1-.17.05-.15.11-.3.19-.43.1-.18.21-.34.33-.49.73-.85,1.94-1.23,3.09-.87,1.5.48,2.32,2.05,1.83,3.52-.24.71-.74,1.29-1.42,1.62-.08.04-.17.08-.26.11-.19.07-.39.13-.58.16-.24.04-.49.05-.74.02l-.28-.04Z" fill="#fee996" stroke-width="0"></path>
      <path d="m65.64,25.88c.91-.91,2.23-2.45,1.76-4.11-.57-2.02-3.98-.73-4.55.13.24-2.1,3.71-3.34,5.19-2.23,1.59,1.19,1.88,3.41.65,4.96-.49.61-2.35,1.05-3.06,1.25Z" fill="#e5b572" opacity=".75" stroke-width="0"></path>
      <path d="m60.44,27.11c-.55-.09-1.52-.94-1.98-1.3-1.55-1.17-1.97-3.45-.64-4.84,2.13-2.22,4.92-1.13,4.49.45-.02.08.13.1.18.15-1.34-.52-2.53-1-3.39.48-.93,1.6.2,3.76,1.46,3.13.46-.23-.15,1.91-.12,1.93Z" fill="#e5b572" opacity=".75" stroke-width="0"></path>
      <path d="m67.4,26.05c1.04-.42,1.89-1.27,2.27-2.4.68-2.05-.47-4.26-2.57-4.92-1.58-.5-3.26.01-4.28,1.17-.32-.22-.68-.39-1.07-.51-1.02-.31-2.11-.22-3.05.26-1.96,1-2.72,3.36-1.7,5.27.37.69.93,1.25,1.62,1.62.23.12.48.23.73.3.08.02.16.05.24.07-.04.5.02,1,.18,1.49.31.97.98,1.76,1.89,2.24.03.02.06.03.08.04.95.48,2.04.57,3.06.26,1.02-.31,1.85-1,2.35-1.92.51-.96.57-2.02.26-2.97Zm-2.95,3.83c-.73.22-1.5.16-2.18-.18-.68-.34-1.18-.92-1.41-1.63-.11-.34-.15-.7-.13-1.05.01-.19.05-.38.1-.57.05-.18.12-.35.21-.51.01-.03.03-.05.03-.08.04-.12.04-.24,0-.35-.04-.14-.14-.25-.28-.33-.28-.14-.63-.04-.77.24-.07.13-.13.26-.18.4-.05-.01-.1-.03-.15-.04-.73-.22-1.33-.71-1.68-1.37-.73-1.36-.19-3.05,1.21-3.76.68-.35,1.45-.41,2.18-.19.29.09.56.22.8.39-.06.12-.11.25-.15.39-.1.29.07.61.37.7.15.05.31.03.43-.03.07-.03.14-.09.19-.15.04-.05.08-.11.1-.17.05-.15.11-.3.19-.43.1-.18.21-.34.33-.49.73-.85,1.94-1.23,3.09-.87,1.5.48,2.32,2.05,1.83,3.52-.24.71-.74,1.29-1.42,1.62-.08.04-.17.08-.26.11-.19.07-.39.13-.58.16-.24.04-.49.05-.74.02-.09,0-.19-.02-.28-.04-.11-.02-.21-.05-.32-.08-.15-.05-.31-.03-.44.03-.13.07-.24.18-.28.32-.09.26.03.53.27.66.03.02.06.03.1.04.06.02.11.04.17.05.5.14,1.01.17,1.5.12.24.7.21,1.48-.16,2.18-.35.66-.95,1.15-1.68,1.37Z" fill="#5b4068" stroke-width="0"></path>
      <ellipse cx="63.38" cy="27.48" rx=".84" ry="1.31" transform="translate(25.04 84.94) rotate(-79.72)" fill="#fcfcfc" opacity=".4" stroke-width="0"></ellipse>
    </g>
    <g>
      <path d="m87.76,35.62c-.11-.02-.21-.05-.32-.08-.15-.05-.31-.03-.44.03-.13.07-.24.18-.28.32-.09.26.03.53.27.66.03.02.06.03.1.04.06.02.11.04.17.05.5.14,1.01.17,1.5.12.24.7.21,1.48-.16,2.18-.35.66-.95,1.15-1.68,1.37-.73.22-1.5.16-2.18-.18-.68-.34-1.18-.92-1.41-1.63-.11-.34-.15-.7-.13-1.05.01-.19.05-.38.1-.57.05-.18.12-.35.21-.51.01-.03.03-.05.03-.08.04-.12.04-.24,0-.35-.04-.14-.14-.25-.28-.33-.28-.14-.63-.04-.77.24-.07.13-.13.26-.18.4-.05-.01-.1-.03-.15-.04-.73-.22-1.33-.71-1.68-1.37-.73-1.36-.19-3.05,1.21-3.76.68-.35,1.45-.41,2.18-.19.29.09.56.22.8.39-.06.12-.11.25-.15.39-.1.29.07.61.37.7.15.05.31.03.43-.03.07-.03.14-.09.19-.15.04-.05.08-.11.1-.17.05-.15.11-.3.19-.43.1-.18.21-.34.33-.49.73-.85,1.94-1.23,3.09-.87,1.5.48,2.32,2.05,1.83,3.52-.24.71-.74,1.29-1.42,1.62-.08.04-.17.08-.26.11-.19.07-.39.13-.58.16-.24.04-.49.05-.74.02l-.28-.04Z" fill="#fee996" stroke-width="0"></path>
      <path d="m88.1,36.32c.91-.91,2.23-2.45,1.76-4.11-.57-2.02-3.98-.73-4.55.13.24-2.1,3.71-3.34,5.19-2.23,1.59,1.19,1.88,3.41.65,4.96-.49.61-2.35,1.05-3.06,1.25Z" fill="#e5b572" opacity=".75" stroke-width="0"></path>
      <path d="m82.9,37.56c-.55-.09-1.52-.94-1.98-1.3-1.55-1.17-1.97-3.45-.64-4.84,2.13-2.22,4.92-1.13,4.49.45-.02.08.13.1.18.15-1.34-.52-2.53-1-3.39.48-.93,1.6.2,3.76,1.46,3.13.46-.23-.15,1.91-.12,1.93Z" fill="#e5b572" opacity=".75" stroke-width="0"></path>
      <path d="m89.86,36.49c1.04-.42,1.89-1.27,2.27-2.4.68-2.05-.47-4.26-2.57-4.92-1.58-.5-3.26.01-4.28,1.17-.32-.22-.68-.39-1.07-.51-1.02-.31-2.11-.22-3.05.26-1.96,1-2.72,3.36-1.7,5.27.37.69.93,1.25,1.62,1.62.23.12.48.23.73.3.08.02.16.05.24.07-.04.5.02,1,.18,1.49.31.97.98,1.76,1.89,2.24.03.02.06.03.08.04.95.48,2.04.57,3.06.26,1.02-.31,1.85-1,2.35-1.92.51-.96.57-2.02.26-2.97Zm-2.95,3.83c-.73.22-1.5.16-2.18-.18-.68-.34-1.18-.92-1.41-1.63-.11-.34-.15-.7-.13-1.05.01-.19.05-.38.1-.57.05-.18.12-.35.21-.51.01-.03.03-.05.03-.08.04-.12.04-.24,0-.35-.04-.14-.14-.25-.28-.33-.28-.14-.63-.04-.77.24-.07.13-.13.26-.18.4-.05-.01-.1-.03-.15-.04-.73-.22-1.33-.71-1.68-1.37-.73-1.36-.19-3.05,1.21-3.76.68-.35,1.45-.41,2.18-.19.29.09.56.22.8.39-.06.12-.11.25-.15.39-.1.29.07.61.37.7.15.05.31.03.43-.03.07-.03.14-.09.19-.15.04-.05.08-.11.1-.17.05-.15.11-.3.19-.43.1-.18.21-.34.33-.49.73-.85,1.94-1.23,3.09-.87,1.5.48,2.32,2.05,1.83,3.52-.24.71-.74,1.29-1.42,1.62-.08.04-.17.08-.26.11-.19.07-.39.13-.58.16-.24.04-.49.05-.74.02-.09,0-.19-.02-.28-.04-.11-.02-.21-.05-.32-.08-.15-.05-.31-.03-.44.03-.13.07-.24.18-.28.32-.09.26.03.53.27.66.03.02.06.03.1.04.06.02.11.04.17.05.5.14,1.01.17,1.5.12.24.7.21,1.48-.16,2.18-.35.66-.95,1.15-1.68,1.37Z" fill="#5b4068" stroke-width="0"></path>
      <ellipse cx="85.84" cy="37.92" rx=".84" ry="1.31" transform="translate(33.22 115.62) rotate(-79.72)" fill="#fcfcfc" opacity=".4" stroke-width="0"></ellipse>
    </g>
    <g>
      <path d="m54.48,24.56c-.09.04-.18.08-.27.11-.13.05-.23.14-.28.25-.05.11-.06.24,0,.37.1.22.35.34.59.3.03,0,.06-.01.09-.02.05-.02.1-.04.15-.06.43-.18.81-.42,1.12-.72.59.33,1.05.87,1.21,1.54.16.63.04,1.26-.33,1.8-.37.53-.95.9-1.63,1.04-.68.13-1.39.01-1.98-.34-.29-.17-.53-.38-.73-.63-.11-.14-.2-.28-.27-.43-.07-.14-.13-.3-.17-.45,0-.02-.01-.05-.02-.07-.04-.1-.12-.18-.21-.24-.11-.07-.25-.09-.39-.07-.28.06-.46.31-.39.57.03.12.07.24.11.36-.04.02-.09.04-.13.05-.64.24-1.36.23-2.01-.02-1.34-.52-1.99-1.93-1.44-3.14.26-.59.76-1.04,1.41-1.28.26-.09.52-.15.79-.16.04.11.08.23.13.34.11.25.42.37.68.27.13-.05.23-.14.28-.25.03-.06.05-.13.04-.2,0-.06-.01-.11-.04-.17-.06-.13-.1-.26-.13-.39-.04-.17-.06-.33-.06-.5,0-.95.6-1.85,1.63-2.21,1.34-.48,2.87.13,3.42,1.36.27.6.27,1.25,0,1.83-.03.07-.07.14-.11.21-.09.15-.19.29-.31.41-.15.16-.32.29-.51.41l-.22.12Z" fill="#fee996" stroke-width="0"></path>
      <path d="m55.15,24.84c.08-1.09.07-2.81-1.27-3.67-1.63-1.04-3.22,1.63-3.09,2.5-1.11-1.52.56-4.19,2.27-4.23,1.83-.05,3.39,1.27,3.47,2.95.03.66-1,1.94-1.37,2.45Z" fill="#e5b572" opacity=".75" stroke-width="0"></path>
      <path d="m52.26,28.42c-.44.23-1.63.18-2.18.19-1.79.05-3.48-1.24-3.39-2.88.13-2.6,2.75-3.36,3.41-2.08.03.06.15,0,.22,0-1.25.37-2.37.67-2.08,2.11.32,1.55,2.43,2.39,2.92,1.31.18-.39,1.06,1.35,1.09,1.34Z" fill="#e5b572" opacity=".75" stroke-width="0"></path>
      <path d="m56.48,24.02c.47-.83.55-1.85.13-2.8-.77-1.72-2.92-2.58-4.79-1.91-1.41.5-2.27,1.73-2.27,3.05-.36.03-.71.1-1.06.23-.9.33-1.6.97-1.97,1.79-.76,1.7.14,3.68,2.02,4.4.68.26,1.41.34,2.11.21.24-.04.47-.1.7-.19.07-.03.14-.05.21-.08.28.35.62.66,1.03.9.81.48,1.76.65,2.68.49.03,0,.06-.01.08-.02.96-.19,1.77-.7,2.29-1.45.52-.75.68-1.64.47-2.52-.23-.9-.83-1.65-1.63-2.11Zm.27,4.11c-.37.53-.95.9-1.63,1.04-.68.13-1.39.01-1.98-.34-.29-.17-.53-.38-.73-.63-.11-.14-.2-.28-.27-.43-.07-.14-.13-.3-.17-.45,0-.02-.01-.05-.02-.07-.04-.1-.12-.18-.21-.24-.11-.07-.25-.09-.39-.07-.28.06-.46.31-.39.57.03.12.07.24.11.36-.04.02-.09.04-.13.05-.64.24-1.36.23-2.01-.02-1.34-.52-1.99-1.93-1.44-3.14.26-.59.76-1.04,1.41-1.28.26-.09.52-.15.79-.16.04.11.08.23.13.34.11.25.42.37.68.27.13-.05.23-.14.28-.25.03-.06.05-.13.04-.2,0-.06-.01-.11-.04-.17-.06-.13-.1-.26-.13-.39-.04-.17-.06-.33-.06-.5,0-.95.6-1.85,1.63-2.21,1.34-.48,2.87.13,3.42,1.36.27.6.27,1.25,0,1.83-.03.07-.07.14-.11.21-.09.15-.19.29-.31.41-.15.16-.32.29-.51.41-.07.04-.15.08-.22.12-.09.04-.18.08-.27.11-.13.05-.23.14-.28.25-.05.11-.06.24,0,.37.1.22.35.34.59.3.03,0,.06-.01.09-.02.05-.02.1-.04.15-.06.43-.18.81-.42,1.12-.72.59.33,1.05.87,1.21,1.54.16.63.04,1.26-.33,1.8Z" fill="#5b4068" stroke-width="0"></path>
      <ellipse cx="54.54" cy="27.1" rx="1.17" ry=".74" transform="translate(-6.27 23.73) rotate(-23.25)" fill="#fcfcfc" opacity=".4" stroke-width="0"></ellipse>
    </g>
    <g>
      <path d="m80.18,23.24c-.09.04-.18.08-.27.11-.13.05-.23.14-.28.25-.05.11-.06.24,0,.37.1.22.35.34.59.3.03,0,.06-.01.09-.02.05-.02.1-.04.15-.06.43-.18.81-.42,1.12-.72.59.33,1.05.87,1.21,1.54.16.63.04,1.26-.33,1.8-.37.53-.95.9-1.63,1.04-.68.13-1.39.01-1.98-.34-.29-.17-.53-.38-.73-.63-.11-.14-.2-.28-.27-.43-.07-.14-.13-.3-.17-.45,0-.02-.01-.05-.02-.07-.04-.1-.12-.18-.21-.24-.11-.07-.25-.09-.39-.07-.28.06-.46.31-.39.57.03.12.07.24.11.36-.04.02-.09.04-.13.05-.64.24-1.36.23-2.01-.02-1.34-.52-1.99-1.93-1.44-3.14.26-.59.76-1.04,1.41-1.28.26-.09.52-.15.79-.16.04.11.08.23.13.34.11.25.42.37.68.27.13-.05.23-.14.28-.25.03-.06.05-.13.04-.2,0-.06-.01-.11-.04-.17-.06-.13-.1-.26-.13-.39-.04-.17-.06-.33-.06-.5,0-.95.6-1.85,1.63-2.21,1.34-.48,2.87.13,3.42,1.36.27.6.27,1.25,0,1.83-.03.07-.07.14-.11.21-.09.15-.19.29-.31.41-.15.16-.32.29-.51.41l-.22.12Z" fill="#fee996" stroke-width="0"></path>
      <path d="m80.85,23.52c.08-1.09.07-2.81-1.27-3.67-1.63-1.04-3.22,1.63-3.09,2.5-1.11-1.52.56-4.19,2.27-4.23,1.83-.05,3.39,1.27,3.47,2.95.03.66-1,1.94-1.37,2.45Z" fill="#e5b572" opacity=".75" stroke-width="0"></path>
      <path d="m77.97,27.1c-.44.23-1.63.18-2.18.19-1.79.05-3.48-1.24-3.39-2.88.13-2.6,2.75-3.36,3.41-2.08.03.06.15,0,.22,0-1.25.37-2.37.67-2.08,2.11.32,1.55,2.43,2.39,2.92,1.31.18-.39,1.06,1.35,1.09,1.34Z" fill="#e5b572" opacity=".75" stroke-width="0"></path>
      <path d="m82.19,22.7c.47-.83.55-1.85.13-2.8-.77-1.72-2.92-2.58-4.79-1.91-1.41.5-2.27,1.73-2.27,3.05-.36.03-.71.1-1.06.23-.9.33-1.6.97-1.97,1.79-.76,1.7.14,3.68,2.02,4.4.68.26,1.41.34,2.11.21.24-.04.47-.1.7-.19.07-.03.14-.05.21-.08.28.35.62.66,1.03.9.81.48,1.76.65,2.68.49.03,0,.06-.01.08-.02.96-.19,1.77-.7,2.29-1.45.52-.75.68-1.64.47-2.52-.23-.9-.83-1.65-1.63-2.11Zm.27,4.11c-.37.53-.95.9-1.63,1.04-.68.13-1.39.01-1.98-.34-.29-.17-.53-.38-.73-.63-.11-.14-.2-.28-.27-.43-.07-.14-.13-.3-.17-.45,0-.02-.01-.05-.02-.07-.04-.1-.12-.18-.21-.24-.11-.07-.25-.09-.39-.07-.28.06-.46.31-.39.57.03.12.07.24.11.36-.04.02-.09.04-.13.05-.64.24-1.36.23-2.01-.02-1.34-.52-1.99-1.93-1.44-3.14.26-.59.76-1.04,1.41-1.28.26-.09.52-.15.79-.16.04.11.08.23.13.34.11.25.42.37.68.27.13-.05.23-.14.28-.25.03-.06.05-.13.04-.2,0-.06-.01-.11-.04-.17-.06-.13-.1-.26-.13-.39-.04-.17-.06-.33-.06-.5,0-.95.6-1.85,1.63-2.21,1.34-.48,2.87.13,3.42,1.36.27.6.27,1.25,0,1.83-.03.07-.07.14-.11.21-.09.15-.19.29-.31.41-.15.16-.32.29-.51.41-.07.04-.15.08-.22.12-.09.04-.18.08-.27.11-.13.05-.23.14-.28.25-.05.11-.06.24,0,.37.1.22.35.34.59.3.03,0,.06-.01.09-.02.05-.02.1-.04.15-.06.43-.18.81-.42,1.12-.72.59.33,1.05.87,1.21,1.54.16.63.04,1.26-.33,1.8Z" fill="#5b4068" stroke-width="0"></path>
      <ellipse cx="80.25" cy="25.78" rx="1.17" ry=".74" transform="translate(-3.66 33.77) rotate(-23.25)" fill="#fcfcfc" opacity=".4" stroke-width="0"></ellipse>
    </g>
    <g>
      <path d="m50.52,29.09c-.06.1-.13.2-.21.29-.11.13-.15.3-.13.45.02.16.1.3.23.41.24.19.57.17.8-.02.03-.02.06-.05.08-.08.04-.05.08-.1.12-.15.33-.45.56-.94.69-1.46.82.02,1.64.35,2.24.99.56.6.85,1.38.81,2.2-.04.81-.4,1.57-1.02,2.12-.62.55-1.42.83-2.25.8-.41-.02-.79-.11-1.15-.27-.2-.09-.39-.19-.56-.32-.17-.12-.32-.25-.46-.41-.02-.02-.04-.04-.07-.06-.11-.09-.24-.14-.37-.14-.16,0-.32.04-.45.16-.25.23-.27.62-.04.87.11.12.23.23.35.34-.03.04-.07.09-.1.13-.51.64-1.25,1.06-2.08,1.16-1.71.22-3.29-.97-3.51-2.64-.11-.81.11-1.61.63-2.26.2-.26.44-.47.71-.65.11.1.23.21.35.3.27.21.67.16.88-.1.11-.13.15-.29.13-.45,0-.09-.04-.17-.08-.25-.04-.06-.09-.12-.15-.16-.14-.11-.27-.23-.39-.35-.15-.16-.28-.34-.39-.52-.62-1.05-.57-2.41.25-3.42,1.07-1.32,3.04-1.55,4.4-.51.66.51,1.08,1.23,1.17,2.04.01.1.02.2.02.3,0,.22-.01.44-.06.64-.05.26-.14.51-.26.75l-.15.27Z" fill="#fee996" stroke-width="0"></path>
      <path d="m51.4,29c-.62-1.26-1.74-3.16-3.67-3.32-2.35-.19-2.27,3.71-1.58,4.61-2.12-1.03-2.12-4.98-.38-6.04,1.86-1.14,4.31-.59,5.47,1.22.46.72.21,2.75.16,3.54Z" fill="#e5b572" opacity=".75" stroke-width="0"></path>
      <path d="m50.72,34.69c-.3.51-1.57,1.16-2.12,1.5-1.81,1.11-4.38.67-5.34-1.19-1.53-2.97.67-5.36,2.18-4.33.07.05.15-.09.23-.13-1.05,1.15-2.01,2.15-.78,3.57,1.33,1.54,4.04,1.22,3.85-.27-.07-.55,1.96.88,1.98.85Z" fill="#e5b572" opacity=".75" stroke-width="0"></path>
      <path d="m52.24,27.3c-.05-1.2-.62-2.38-1.67-3.18-1.9-1.46-4.66-1.14-6.16.71-1.13,1.39-1.22,3.27-.39,4.73-.35.24-.67.54-.94.88-.72.9-1.03,2.03-.88,3.16.31,2.34,2.51,4,4.91,3.7.87-.11,1.67-.46,2.32-1.01.22-.18.42-.39.6-.62.05-.07.11-.14.16-.21.51.23,1.06.36,1.64.39,1.14.05,2.23-.32,3.08-1.04.03-.02.05-.05.08-.07.87-.77,1.37-1.82,1.43-2.97.05-1.14-.35-2.23-1.14-3.08-.82-.87-1.92-1.34-3.03-1.38Zm2.92,4.41c-.04.81-.4,1.57-1.02,2.12-.62.55-1.42.83-2.25.8-.41-.02-.79-.11-1.15-.27-.2-.09-.39-.19-.56-.32-.17-.12-.32-.25-.46-.41-.02-.02-.04-.04-.07-.06-.11-.09-.24-.14-.37-.14-.16,0-.32.04-.45.16-.25.23-.27.62-.04.87.11.12.23.23.35.34-.03.04-.07.09-.1.13-.51.64-1.25,1.06-2.08,1.16-1.71.22-3.29-.97-3.51-2.64-.11-.81.11-1.61.63-2.26.2-.26.44-.47.71-.65.11.1.23.21.35.3.27.21.67.16.88-.1.11-.13.15-.29.13-.45,0-.09-.04-.17-.08-.25-.04-.06-.09-.12-.15-.16-.14-.11-.27-.23-.39-.35-.15-.16-.28-.34-.39-.52-.62-1.05-.57-2.41.25-3.42,1.07-1.32,3.04-1.55,4.4-.51.66.51,1.08,1.23,1.17,2.04.01.1.02.2.02.3,0,.22-.01.44-.06.64-.05.26-.14.51-.26.75-.05.09-.1.18-.15.27-.06.1-.13.2-.21.29-.11.13-.15.3-.13.45.02.16.1.3.23.41.24.19.57.17.8-.02.03-.02.06-.05.08-.08.04-.05.08-.1.12-.15.33-.45.56-.94.69-1.46.82.02,1.64.35,2.24.99.56.6.85,1.38.81,2.2Z" fill="#5b4068" stroke-width="0"></path>
      <ellipse cx="52.22" cy="31.87" rx="1.41" ry=".94" transform="translate(-2.85 58.52) rotate(-57.21)" fill="#fcfcfc" opacity=".4" stroke-width="0"></ellipse>
    </g>
    <g>
      <path d="m44.01,35.64c.01-.11.04-.21.06-.31.04-.15.02-.3-.06-.42-.07-.12-.19-.22-.35-.26-.27-.07-.54.06-.66.3-.01.03-.03.06-.04.1-.02.06-.03.11-.04.17-.11.5-.12.99-.04,1.46-.7.28-1.5.29-2.24-.04-.7-.31-1.23-.86-1.5-1.55-.27-.69-.25-1.45.06-2.13.31-.68.88-1.2,1.59-1.47.35-.13.71-.19,1.06-.18.2,0,.4.03.59.07.18.04.36.1.54.18.03.01.05.02.08.03.12.03.25.03.36-.01.14-.05.25-.15.32-.29.13-.28,0-.61-.29-.74-.14-.06-.28-.11-.42-.16.01-.05.02-.1.03-.15.19-.72.65-1.33,1.31-1.71,1.36-.79,3.12-.35,3.92.97.39.64.5,1.39.32,2.11-.07.29-.19.55-.35.8-.13-.05-.27-.09-.41-.13-.31-.08-.62.1-.7.4-.04.15-.01.3.06.42.04.07.1.13.16.18.05.04.12.07.18.09.16.04.31.09.45.16.18.08.36.18.52.3.91.66,1.37,1.82,1.06,2.95-.4,1.49-1.97,2.38-3.5,1.98-.74-.19-1.36-.65-1.74-1.3-.05-.08-.09-.16-.13-.24-.09-.18-.15-.37-.19-.56-.05-.24-.08-.48-.06-.72l.03-.28Z" fill="#fee996" stroke-width="0"></path>
      <path d="m43.31,36.02c.99.84,2.63,2.04,4.31,1.48,2.04-.67.52-3.92-.4-4.42,2.16.11,3.63,3.42,2.57,4.93-1.13,1.61-3.39,2.02-5.04.92-.66-.44-1.2-2.23-1.45-2.91Z" fill="#e5b572" opacity=".75" stroke-width="0"></path>
      <path d="m41.76,31.02c.06-.54.88-1.53,1.22-2.01,1.11-1.57,3.42-2.12,4.92-.89,2.39,1.95,1.44,4.73-.21,4.4-.08-.02-.09.13-.14.19.45-1.33.88-2.52-.68-3.27-1.69-.82-3.84.41-3.12,1.59.26.43-1.97-.04-1.98,0Z" fill="#e5b572" opacity=".75" stroke-width="0"></path>
      <path d="m43.24,37.74c.49.99,1.41,1.77,2.58,2.08,2.14.55,4.33-.7,4.9-2.78.43-1.57-.19-3.17-1.44-4.1.2-.33.36-.69.46-1.07.26-1.01.11-2.06-.44-2.96-1.13-1.85-3.6-2.46-5.49-1.36-.69.4-1.23.98-1.56,1.67-.11.23-.2.48-.27.73-.02.08-.04.16-.05.23-.51-.01-1.03.07-1.52.26-.97.36-1.75,1.06-2.19,1.97-.01.03-.03.06-.04.08-.44.95-.47,2.01-.09,2.99.38.98,1.13,1.75,2.1,2.18,1.01.44,2.1.44,3.06.08Zm-4.09-2.66c-.27-.69-.25-1.45.06-2.13.31-.68.88-1.2,1.59-1.47.35-.13.71-.19,1.06-.18.2,0,.4.03.59.07.18.04.36.1.54.18.03.01.05.02.08.03.12.03.25.03.36-.01.14-.05.25-.15.32-.29.13-.28,0-.61-.29-.74-.14-.06-.28-.11-.42-.16.01-.05.02-.1.03-.15.19-.72.65-1.33,1.31-1.71,1.36-.79,3.12-.35,3.92.97.39.64.5,1.39.32,2.11-.07.29-.19.55-.35.8-.13-.05-.27-.09-.41-.13-.31-.08-.62.1-.7.4-.04.15-.01.3.06.42.04.07.1.13.16.18.05.04.12.07.18.09.16.04.31.09.45.16.18.08.36.18.52.3.91.66,1.37,1.82,1.06,2.95-.4,1.49-1.97,2.38-3.5,1.98-.74-.19-1.36-.65-1.74-1.3-.05-.08-.09-.16-.13-.24-.09-.18-.15-.37-.19-.56-.05-.24-.08-.48-.06-.72,0-.09.01-.18.03-.28.01-.11.04-.21.06-.31.04-.15.02-.3-.06-.42-.07-.12-.19-.22-.35-.26-.27-.07-.54.06-.66.3-.01.03-.03.06-.04.1-.02.06-.03.11-.04.17-.11.5-.12.99-.04,1.46-.7.28-1.5.29-2.24-.04-.7-.31-1.23-.86-1.5-1.55Z" fill="#5b4068" stroke-width="0"></path>
      <ellipse cx="41.55" cy="33.91" rx="1.28" ry=".86" transform="translate(2.07 70.2) rotate(-81.81)" fill="#fcfcfc" opacity=".4" stroke-width="0"></ellipse>
    </g>
    <g>
      <path d="m68.91,32.83c-.06.09-.12.18-.19.26-.1.12-.14.27-.12.41.02.14.09.28.21.37.22.17.52.16.73-.02.03-.02.05-.05.08-.08.04-.05.07-.09.11-.14.3-.41.51-.86.63-1.33.75.02,1.5.32,2.04.9.51.55.78,1.26.74,2.01-.03.74-.36,1.43-.93,1.93-.57.5-1.3.76-2.06.73-.37-.02-.72-.1-1.05-.24-.18-.08-.35-.18-.51-.29-.15-.11-.29-.23-.42-.37-.02-.02-.04-.04-.06-.06-.1-.08-.22-.12-.34-.13-.15,0-.29.04-.41.14-.23.21-.25.56-.04.79.1.11.21.21.32.31-.03.04-.06.08-.09.12-.47.59-1.14.97-1.9,1.06-1.57.2-3-.88-3.2-2.41-.1-.74.1-1.47.57-2.06.19-.23.4-.43.65-.59.1.1.21.19.32.27.25.19.61.15.8-.09.1-.12.14-.27.12-.41,0-.08-.03-.16-.08-.23-.03-.06-.08-.11-.13-.15-.13-.1-.25-.21-.35-.32-.14-.15-.25-.31-.35-.47-.57-.96-.52-2.2.23-3.12.98-1.21,2.78-1.42,4.02-.46.6.46.98,1.12,1.07,1.86.01.09.02.18.02.27,0,.2-.01.4-.05.59-.05.24-.13.47-.24.69l-.14.24Z" fill="#fee996" stroke-width="0"></path>
      <path d="m69.71,32.75c-.56-1.15-1.59-2.89-3.35-3.03-2.15-.18-2.08,3.39-1.44,4.21-1.94-.94-1.94-4.55-.35-5.52,1.7-1.04,3.93-.54,5,1.12.42.66.2,2.51.14,3.23Z" fill="#e5b572" opacity=".75" stroke-width="0"></path>
      <path d="m69.09,37.94c-.28.47-1.43,1.06-1.93,1.37-1.66,1.01-4,.61-4.88-1.09-1.4-2.71.61-4.9,1.99-3.95.07.04.14-.08.21-.12-.96,1.05-1.84,1.97-.71,3.26,1.22,1.4,3.69,1.11,3.52-.25-.06-.5,1.79.8,1.81.78Z" fill="#e5b572" opacity=".75" stroke-width="0"></path>
      <path d="m70.48,31.2c-.05-1.1-.57-2.17-1.52-2.91-1.73-1.33-4.26-1.04-5.63.65-1.03,1.27-1.11,2.98-.35,4.32-.32.22-.61.49-.86.8-.65.82-.94,1.85-.8,2.88.28,2.14,2.29,3.65,4.48,3.38.8-.1,1.52-.42,2.11-.92.2-.17.38-.36.55-.56.05-.06.1-.13.15-.19.47.21.97.33,1.5.35,1.04.05,2.03-.29,2.81-.95.02-.02.05-.04.07-.06.79-.7,1.25-1.67,1.3-2.71.05-1.04-.32-2.04-1.04-2.81-.75-.79-1.75-1.22-2.77-1.26Zm2.67,4.03c-.03.74-.36,1.43-.93,1.93-.57.5-1.3.76-2.06.73-.37-.02-.72-.1-1.05-.24-.18-.08-.35-.18-.51-.29-.15-.11-.29-.23-.42-.37-.02-.02-.04-.04-.06-.06-.1-.08-.22-.12-.34-.13-.15,0-.29.04-.41.14-.23.21-.25.56-.04.79.1.11.21.21.32.31-.03.04-.06.08-.09.12-.47.59-1.14.97-1.9,1.06-1.57.2-3-.88-3.2-2.41-.1-.74.1-1.47.57-2.06.19-.23.4-.43.65-.59.1.1.21.19.32.27.25.19.61.15.8-.09.1-.12.14-.27.12-.41,0-.08-.03-.16-.08-.23-.03-.06-.08-.11-.13-.15-.13-.1-.25-.21-.35-.32-.14-.15-.25-.31-.35-.47-.57-.96-.52-2.2.23-3.12.98-1.21,2.78-1.42,4.02-.46.6.46.98,1.12,1.07,1.86.01.09.02.18.02.27,0,.2-.01.4-.05.59-.05.24-.13.47-.24.69-.04.08-.09.16-.14.24-.06.09-.12.18-.19.26-.1.12-.14.27-.12.41.02.14.09.28.21.37.22.17.52.16.73-.02.03-.02.05-.05.08-.08.04-.05.07-.09.11-.14.3-.41.51-.86.63-1.33.75.02,1.5.32,2.04.9.51.55.78,1.26.74,2.01Z" fill="#5b4068" stroke-width="0"></path>
      <ellipse cx="70.46" cy="35.37" rx="1.29" ry=".85" transform="translate(2.57 75.46) rotate(-57.21)" fill="#fcfcfc" opacity=".4" stroke-width="0"></ellipse>
    </g>
    <g>
      <path d="m59.29,34.69c-.07-.08-.12-.18-.18-.27-.08-.13-.21-.23-.35-.26-.14-.04-.3-.02-.43.05-.24.13-.35.42-.26.66.01.03.03.06.04.1.03.05.06.1.09.15.28.43.63.79,1.03,1.07-.3.67-.87,1.23-1.63,1.51-.72.26-1.49.23-2.19-.08-.69-.31-1.22-.87-1.49-1.57-.27-.7-.23-1.46.08-2.13.16-.33.37-.62.63-.86.14-.13.3-.25.47-.35.16-.1.33-.18.51-.24.03,0,.05-.02.08-.04.11-.06.2-.15.25-.25.06-.13.07-.28.02-.43-.11-.29-.44-.44-.74-.33-.14.05-.28.11-.41.17-.03-.04-.06-.08-.08-.13-.38-.64-.49-1.4-.29-2.12.4-1.49,1.97-2.38,3.5-1.99.74.19,1.36.65,1.74,1.29.15.26.26.53.32.81-.13.05-.26.12-.38.19-.28.15-.37.49-.21.76.08.13.2.22.35.26.08.02.16.03.24.02.07-.01.13-.03.19-.06.14-.08.29-.14.44-.2.19-.07.39-.11.58-.14,1.13-.15,2.29.36,2.88,1.38.78,1.34.3,3.04-1.07,3.8-.66.37-1.44.46-2.17.27-.09-.02-.18-.05-.27-.09-.19-.07-.37-.16-.54-.27-.21-.13-.4-.29-.57-.47l-.18-.22Z" fill="#fee996" stroke-width="0"></path>
      <path d="m59.06,35.44c1.31-.08,3.34-.34,4.14-1.89.97-1.87-2.44-3.15-3.46-2.89,1.62-1.4,5.05-.04,5.38,1.76.35,1.92-.97,3.76-2.94,4.1-.78.13-2.46-.77-3.12-1.08Z" fill="#e5b572" opacity=".75" stroke-width="0"></path>
      <path d="m54.36,32.93c-.34-.43-.47-1.69-.57-2.26-.34-1.88.92-3.84,2.87-4,3.1-.24,4.42,2.4,3.01,3.29-.07.04.03.15.03.23-.64-1.26-1.18-2.4-2.83-1.87-1.79.57-2.44,2.91-1.09,3.27.5.13-1.43,1.31-1.42,1.34Z" fill="#e5b572" opacity=".75" stroke-width="0"></path>
      <path d="m60.25,36.72c1.06.37,2.28.3,3.33-.28,1.92-1.06,2.59-3.45,1.5-5.33-.82-1.41-2.41-2.13-3.97-1.94-.09-.37-.24-.74-.44-1.08-.54-.9-1.41-1.54-2.44-1.81-2.14-.55-4.33.7-4.9,2.78-.21.76-.17,1.54.08,2.26.09.24.2.48.33.71.04.07.08.14.13.2-.37.34-.68.75-.9,1.22-.44.92-.49,1.95-.15,2.9.01.03.02.06.03.09.37.98,1.11,1.76,2.08,2.2.97.44,2.06.48,3.06.12,1.03-.37,1.82-1.12,2.24-2.03Zm-4.83.9c-.69-.31-1.22-.87-1.49-1.57-.27-.7-.23-1.46.08-2.13.16-.33.37-.62.63-.86.14-.13.3-.25.47-.35.16-.1.33-.18.51-.24.03,0,.05-.02.08-.04.11-.06.2-.15.25-.25.06-.13.07-.28.02-.43-.11-.29-.44-.44-.74-.33-.14.05-.28.11-.41.17-.03-.04-.06-.08-.08-.13-.38-.64-.49-1.4-.29-2.12.4-1.49,1.97-2.38,3.5-1.99.74.19,1.36.65,1.74,1.29.15.26.26.53.32.81-.13.05-.26.12-.38.19-.28.15-.37.49-.21.76.08.13.2.22.35.26.08.02.16.03.24.02.07-.01.13-.03.19-.06.14-.08.29-.14.44-.2.19-.07.39-.11.58-.14,1.13-.15,2.29.36,2.88,1.38.78,1.34.3,3.04-1.07,3.8-.66.37-1.44.46-2.17.27-.09-.02-.18-.05-.27-.09-.19-.07-.37-.16-.54-.27-.21-.13-.4-.29-.57-.47-.06-.07-.12-.14-.18-.22-.07-.08-.12-.18-.18-.27-.08-.13-.21-.23-.35-.26-.14-.04-.3-.02-.43.05-.24.13-.35.42-.26.66.01.03.03.06.04.1.03.05.06.1.09.15.28.43.63.79,1.03,1.07-.3.67-.87,1.23-1.63,1.51-.72.26-1.49.23-2.19-.08Z" fill="#5b4068" stroke-width="0"></path>
      <ellipse cx="56.29" cy="35.13" rx=".85" ry="1.29" transform="translate(-9.63 42.73) rotate(-38.54)" fill="#fcfcfc" opacity=".4" stroke-width="0"></ellipse>
    </g>
    <g>
      <path d="m81.84,26.79c.04.1.07.2.09.31.03.15.13.28.25.35.12.08.28.11.43.08.27-.06.46-.3.45-.56,0-.03,0-.07-.01-.1-.01-.06-.03-.11-.04-.17-.13-.49-.36-.93-.65-1.32.49-.56,1.21-.92,2.01-.96.76-.04,1.49.22,2.06.72.57.5.9,1.18.94,1.93.04.75-.22,1.46-.73,2.01-.25.27-.54.48-.86.64-.18.09-.36.15-.56.2-.18.05-.37.07-.56.08-.03,0-.06,0-.08.01-.13.02-.24.08-.31.17-.1.11-.15.25-.15.4.02.31.29.55.6.53.15,0,.3-.02.45-.05.01.05.03.1.04.15.17.73.04,1.47-.37,2.1-.84,1.3-2.61,1.7-3.94.88-.65-.4-1.1-1.01-1.27-1.74-.07-.29-.09-.58-.06-.86.14-.01.28-.04.42-.07.31-.07.5-.36.44-.66-.03-.15-.13-.27-.25-.35-.07-.05-.15-.07-.23-.09-.07,0-.14,0-.2,0-.16.03-.32.05-.48.06-.2,0-.4,0-.6-.03-1.12-.18-2.07-1.01-2.33-2.16-.34-1.5.64-2.99,2.19-3.32.75-.16,1.51-.03,2.16.38.08.05.16.1.23.16.16.12.31.26.43.41.16.19.29.39.4.61l.1.26Z" fill="#fee996" stroke-width="0"></path>
      <path d="m82.28,26.14c-1.27-.31-3.3-.64-4.53.6-1.5,1.5,1.37,3.72,2.42,3.76-1.97.86-4.83-1.43-4.59-3.24.26-1.94,2.07-3.3,4.06-3.06.79.1,2.11,1.45,2.65,1.94Z" fill="#e5b572" opacity=".75" stroke-width="0"></path>
      <path d="m86.01,29.9c.19.51-.07,1.75-.15,2.33-.25,1.89-2.05,3.4-3.96,2.98-3.04-.67-3.49-3.57-1.87-4.01.08-.02.02-.15.04-.23.22,1.39.39,2.63,2.13,2.61,1.88-.02,3.22-2.07,2.04-2.81-.43-.27,1.77-.84,1.77-.87Z" fill="#e5b572" opacity=".75" stroke-width="0"></path>
      <path d="m81.54,24.57c-.9-.66-2.08-.95-3.27-.7-2.16.46-3.53,2.54-3.06,4.65.35,1.58,1.65,2.73,3.2,3.01-.03.38,0,.77.09,1.16.24,1.02.87,1.88,1.77,2.44,1.87,1.15,4.35.59,5.52-1.23.43-.66.63-1.42.61-2.18,0-.26-.04-.51-.1-.77-.02-.08-.04-.16-.06-.23.46-.22.88-.52,1.23-.9.7-.75,1.06-1.72,1.03-2.72,0-.03,0-.06,0-.09-.06-1.04-.52-2-1.32-2.7-.79-.7-1.82-1.05-2.89-1-1.1.06-2.08.54-2.76,1.28Zm4.88.55c.57.5.9,1.18.94,1.93.04.75-.22,1.46-.73,2.01-.25.27-.54.48-.86.64-.18.09-.36.15-.56.2-.18.05-.37.07-.56.08-.03,0-.06,0-.08.01-.13.02-.24.08-.31.17-.1.11-.15.25-.15.4.02.31.29.55.6.53.15,0,.3-.02.45-.05.01.05.03.1.04.15.17.73.04,1.47-.37,2.1-.84,1.3-2.61,1.7-3.94.88-.65-.4-1.1-1.01-1.27-1.74-.07-.29-.09-.58-.06-.86.14-.01.28-.04.42-.07.31-.07.5-.36.44-.66-.03-.15-.13-.27-.25-.35-.07-.05-.15-.07-.23-.09-.07,0-.14,0-.2,0-.16.03-.32.05-.48.06-.2,0-.4,0-.6-.03-1.12-.18-2.07-1.01-2.33-2.16-.34-1.5.64-2.99,2.19-3.32.75-.16,1.51-.03,2.16.38.08.05.16.1.23.16.16.12.31.26.43.41.16.19.29.39.4.61.04.08.07.17.1.26.04.1.07.2.09.31.03.15.13.28.25.35.12.08.28.11.43.08.27-.06.46-.3.45-.56,0-.03,0-.07-.01-.1-.01-.06-.03-.11-.04-.17-.13-.49-.36-.93-.65-1.32.49-.56,1.21-.92,2.01-.96.76-.04,1.49.22,2.06.72Z" fill="#5b4068" stroke-width="0"></path>
      <ellipse cx="84.84" cy="27.24" rx=".86" ry="1.28" transform="translate(-4.16 31.65) rotate(-20.63)" fill="#fcfcfc" opacity=".4" stroke-width="0"></ellipse>
    </g>
    <g>
      <path d="m65.29,42.63c-.1-.04-.2-.09-.3-.14-.14-.08-.3-.09-.43-.05-.14.04-.26.13-.32.27-.12.24-.05.54.17.71.03.02.06.04.09.06.05.03.11.06.16.08.47.24.96.37,1.45.42.14.74-.01,1.52-.48,2.14-.44.59-1.09.95-1.84,1.03-.74.08-1.49-.14-2.11-.62-.62-.48-1.02-1.16-1.14-1.91-.06-.37-.05-.73.03-1.07.04-.19.1-.37.18-.55.08-.16.17-.32.28-.47.02-.02.03-.04.04-.07.06-.11.08-.23.06-.35-.02-.14-.1-.28-.23-.38-.26-.2-.61-.16-.79.08-.09.12-.17.24-.24.36-.05-.02-.09-.05-.14-.07-.68-.37-1.19-.98-1.44-1.71-.52-1.51.26-3.08,1.73-3.5.71-.21,1.48-.12,2.16.25.27.15.51.33.72.55-.07.11-.14.23-.21.36-.14.27-.02.62.26.77.14.08.29.09.43.05.08-.02.15-.06.21-.11.05-.04.09-.09.12-.15.07-.14.15-.27.24-.39.12-.16.25-.29.4-.42.84-.7,2.08-.84,3.15-.24,1.4.78,1.97,2.51,1.28,3.87-.33.66-.91,1.13-1.63,1.33-.09.02-.18.05-.27.06-.2.04-.4.05-.59.04-.24,0-.49-.05-.73-.13l-.27-.1Z" fill="#fee996" stroke-width="0"></path>
      <path d="m65.53,43.4c1.03-.73,2.54-1.99,2.32-3.74-.27-2.13-3.79-1.53-4.47-.78.53-2.04,4.11-2.58,5.4-1.17,1.38,1.51,1.34,3.78-.08,5.07-.56.51-2.45.57-3.17.63Z" fill="#e5b572" opacity=".75" stroke-width="0"></path>
      <path d="m60.26,43.58c-.52-.2-1.35-1.25-1.75-1.69-1.34-1.47-1.43-3.83.08-4.95,2.4-1.78,4.98-.14,4.33,1.36-.03.07.11.12.16.19-1.24-.78-2.33-1.51-3.38-.21-1.14,1.4-.35,3.78.97,3.41.48-.14-.43,1.87-.4,1.89Z" fill="#e5b572" opacity=".75" stroke-width="0"></path>
      <path d="m67.23,43.93c1.08-.21,2.04-.88,2.57-1.93.97-1.9.16-4.34-1.8-5.42-1.47-.82-3.19-.65-4.36.3-.29-.28-.61-.53-.97-.72-.95-.52-2.03-.64-3.03-.35-2.06.6-3.15,2.8-2.43,4.91.26.77.73,1.43,1.35,1.94.21.17.43.32.67.45.07.04.15.08.22.11-.11.49-.13,1-.04,1.52.17,1.03.71,1.95,1.52,2.62.03.02.05.04.08.06.86.67,1.91.98,2.95.87,1.04-.11,1.96-.62,2.57-1.45.63-.85.85-1.9.68-2.91Zm-3.44,3.22c-.74.08-1.49-.14-2.11-.62-.62-.48-1.02-1.16-1.14-1.91-.06-.37-.05-.73.03-1.07.04-.19.1-.37.18-.55.08-.16.17-.32.28-.47.02-.02.03-.04.04-.07.06-.11.08-.23.06-.35-.02-.14-.1-.28-.23-.38-.26-.2-.61-.16-.79.08-.09.12-.17.24-.24.36-.05-.02-.09-.05-.14-.07-.68-.37-1.19-.98-1.44-1.71-.52-1.51.26-3.08,1.73-3.5.71-.21,1.48-.12,2.16.25.27.15.51.33.72.55-.07.11-.14.23-.21.36-.14.27-.02.62.26.77.14.08.29.09.43.05.08-.02.15-.06.21-.11.05-.04.09-.09.12-.15.07-.14.15-.27.24-.39.12-.16.25-.29.4-.42.84-.7,2.08-.84,3.15-.24,1.4.78,1.97,2.51,1.28,3.87-.33.66-.91,1.13-1.63,1.33-.09.02-.18.05-.27.06-.2.04-.4.05-.59.04-.24,0-.49-.05-.73-.13-.09-.03-.18-.06-.27-.1-.1-.04-.2-.09-.3-.14-.14-.08-.3-.09-.43-.05-.14.04-.26.13-.32.27-.12.24-.05.54.17.71.03.02.06.04.09.06.05.03.11.06.16.08.47.24.96.37,1.45.42.14.74-.01,1.52-.48,2.14-.44.59-1.09.95-1.84,1.03Z" fill="#5b4068" stroke-width="0"></path>
      <ellipse cx="63.09" cy="44.54" rx=".83" ry="1.32" transform="translate(-3.29 84) rotate(-65.95)" fill="#fcfcfc" opacity=".4" stroke-width="0"></ellipse>
    </g>
    <g>
      <path d="m57.74,25.48c-.09.04-.18.08-.27.11-.13.05-.23.14-.28.25-.05.11-.06.24,0,.37.1.22.35.34.59.3.03,0,.06-.01.09-.02.05-.02.1-.04.15-.06.43-.18.81-.42,1.12-.72.59.33,1.05.87,1.21,1.54.16.63.04,1.26-.33,1.8-.37.53-.95.9-1.63,1.04-.68.13-1.39.01-1.98-.34-.29-.17-.53-.38-.73-.63-.11-.14-.2-.28-.27-.43-.07-.14-.13-.3-.17-.45,0-.02-.01-.05-.02-.07-.04-.1-.12-.18-.21-.24-.11-.07-.25-.09-.39-.07-.28.06-.46.31-.39.57.03.12.07.24.11.36-.04.02-.09.04-.13.05-.64.24-1.36.23-2.01-.02-1.34-.52-1.99-1.93-1.44-3.14.26-.59.76-1.04,1.41-1.28.26-.09.52-.15.79-.16.04.11.08.23.13.34.11.25.42.37.68.27.13-.05.23-.14.28-.25.03-.06.05-.13.04-.2,0-.06-.01-.11-.04-.17-.06-.13-.1-.26-.13-.39-.04-.17-.06-.33-.06-.5,0-.95.6-1.85,1.63-2.21,1.34-.48,2.87.13,3.42,1.36.27.6.27,1.25,0,1.83-.03.07-.07.14-.11.21-.09.15-.19.29-.31.41-.15.16-.32.29-.51.41l-.22.12Z" fill="#fee996" stroke-width="0"></path>
      <path d="m58.41,25.76c.08-1.09.07-2.81-1.27-3.67-1.63-1.04-3.22,1.63-3.09,2.5-1.11-1.52.56-4.19,2.27-4.23,1.83-.05,3.39,1.27,3.47,2.95.03.66-1,1.94-1.37,2.45Z" fill="#e5b572" opacity=".75" stroke-width="0"></path>
      <path d="m55.53,29.34c-.44.23-1.63.18-2.18.19-1.79.05-3.48-1.24-3.39-2.88.13-2.6,2.75-3.36,3.41-2.08.03.06.15,0,.22,0-1.25.37-2.37.67-2.08,2.11.32,1.55,2.43,2.39,2.92,1.31.18-.39,1.06,1.35,1.09,1.34Z" fill="#e5b572" opacity=".75" stroke-width="0"></path>
      <path d="m59.75,24.94c.47-.83.55-1.85.13-2.8-.77-1.72-2.92-2.58-4.79-1.91-1.41.5-2.27,1.73-2.27,3.05-.36.03-.71.1-1.06.23-.9.33-1.6.97-1.97,1.79-.76,1.7.14,3.68,2.02,4.4.68.26,1.41.34,2.11.21.24-.04.47-.1.7-.19.07-.03.14-.05.21-.08.28.35.62.66,1.03.9.81.48,1.76.65,2.68.49.03,0,.06-.01.08-.02.96-.19,1.77-.7,2.29-1.45.52-.75.68-1.64.47-2.52-.23-.9-.83-1.65-1.63-2.11Zm.27,4.11c-.37.53-.95.9-1.63,1.04-.68.13-1.39.01-1.98-.34-.29-.17-.53-.38-.73-.63-.11-.14-.2-.28-.27-.43-.07-.14-.13-.3-.17-.45,0-.02-.01-.05-.02-.07-.04-.1-.12-.18-.21-.24-.11-.07-.25-.09-.39-.07-.28.06-.46.31-.39.57.03.12.07.24.11.36-.04.02-.09.04-.13.05-.64.24-1.36.23-2.01-.02-1.34-.52-1.99-1.93-1.44-3.14.26-.59.76-1.04,1.41-1.28.26-.09.52-.15.79-.16.04.11.08.23.13.34.11.25.42.37.68.27.13-.05.23-.14.28-.25.03-.06.05-.13.04-.2,0-.06-.01-.11-.04-.17-.06-.13-.1-.26-.13-.39-.04-.17-.06-.33-.06-.5,0-.95.6-1.85,1.63-2.21,1.34-.48,2.87.13,3.42,1.36.27.6.27,1.25,0,1.83-.03.07-.07.14-.11.21-.09.15-.19.29-.31.41-.15.16-.32.29-.51.41-.07.04-.15.08-.22.12-.09.04-.18.08-.27.11-.13.05-.23.14-.28.25-.05.11-.06.24,0,.37.1.22.35.34.59.3.03,0,.06-.01.09-.02.05-.02.1-.04.15-.06.43-.18.81-.42,1.12-.72.59.33,1.05.87,1.21,1.54.16.63.04,1.26-.33,1.8Z" fill="#5b4068" stroke-width="0"></path>
      <ellipse cx="57.81" cy="28.02" rx="1.17" ry=".74" transform="translate(-6.37 25.09) rotate(-23.25)" fill="#fcfcfc" opacity=".4" stroke-width="0"></ellipse>
    </g>
    <g>
      <path d="m61.25,17.74c.05.08.09.17.13.26.05.13.16.22.27.27.12.05.25.04.37-.02.22-.1.33-.35.28-.59,0-.03-.02-.06-.03-.09-.02-.05-.04-.1-.07-.14-.2-.41-.47-.77-.78-1.06.31-.59.85-1.06,1.52-1.25.64-.18,1.29-.09,1.86.24.56.34.97.89,1.13,1.54.17.66.08,1.35-.25,1.94-.16.29-.37.54-.61.73-.13.11-.28.21-.43.29-.14.08-.3.14-.46.18-.02,0-.05.01-.07.03-.1.05-.18.12-.23.21-.06.11-.08.25-.05.39.07.27.34.43.6.36.13-.03.25-.08.37-.13.02.04.04.08.06.12.27.62.3,1.31.07,1.95-.47,1.33-1.89,2.02-3.15,1.55-.62-.23-1.1-.69-1.38-1.31-.11-.25-.18-.5-.2-.76.11-.04.23-.09.34-.14.25-.12.36-.42.25-.68-.05-.13-.16-.22-.27-.26-.06-.03-.14-.04-.21-.03-.06,0-.12.02-.17.04-.13.06-.26.11-.39.15-.17.05-.34.07-.51.08-.97.05-1.92-.51-2.34-1.48-.55-1.28,0-2.8,1.24-3.39.6-.29,1.27-.31,1.88-.08.08.03.15.06.22.1.16.08.31.18.44.29.17.14.31.29.44.47l.13.21Z" fill="#fee996" stroke-width="0"></path>
      <path d="m61.51,17.07c-1.12-.03-2.88.06-3.7,1.41-.99,1.64,1.81,3.07,2.7,2.9-1.5,1.15-4.32-.35-4.44-2.02-.13-1.78,1.15-3.36,2.86-3.52.68-.06,2.03.89,2.57,1.23Z" fill="#e5b572" opacity=".75" stroke-width="0"></path>
      <path d="m65.31,19.72c.25.42.26,1.58.29,2.11.13,1.74-1.12,3.44-2.79,3.43-2.67-.01-3.57-2.53-2.29-3.23.06-.03,0-.14,0-.21.43,1.2.8,2.28,2.26,1.93,1.58-.38,2.34-2.47,1.21-2.9-.41-.16,1.34-1.09,1.33-1.12Z" fill="#e5b572" opacity=".75" stroke-width="0"></path>
      <path d="m60.61,15.81c-.87-.42-1.92-.45-2.87,0-1.73.83-2.51,2.96-1.74,4.75.58,1.35,1.88,2.13,3.22,2.08.05.35.14.69.28,1.02.38.86,1.07,1.52,1.93,1.84,1.78.66,3.76-.31,4.42-2.17.24-.67.28-1.39.12-2.07-.05-.23-.13-.45-.22-.67-.03-.07-.06-.13-.09-.2.35-.28.64-.64.87-1.05.45-.81.58-1.74.38-2.64,0-.03-.01-.06-.02-.08-.23-.92-.8-1.69-1.59-2.16-.79-.47-1.72-.59-2.61-.34-.92.26-1.65.88-2.09,1.68Zm4.2-.45c.56.34.97.89,1.13,1.54.17.66.08,1.35-.25,1.94-.16.29-.37.54-.61.73-.13.11-.28.21-.43.29-.14.08-.3.14-.46.18-.02,0-.05.01-.07.03-.1.05-.18.12-.23.21-.06.11-.08.25-.05.39.07.27.34.43.6.36.13-.03.25-.08.37-.13.02.04.04.08.06.12.27.62.3,1.31.07,1.95-.47,1.33-1.89,2.02-3.15,1.55-.62-.23-1.1-.69-1.38-1.31-.11-.25-.18-.5-.2-.76.11-.04.23-.09.34-.14.25-.12.36-.42.25-.68-.05-.13-.16-.22-.27-.26-.06-.03-.14-.04-.21-.03-.06,0-.12.02-.17.04-.13.06-.26.11-.39.15-.17.05-.34.07-.51.08-.97.05-1.92-.51-2.34-1.48-.55-1.28,0-2.8,1.24-3.39.6-.29,1.27-.31,1.88-.08.08.03.15.06.22.1.16.08.31.18.44.29.17.14.31.29.44.47.05.07.09.14.13.21.05.08.09.17.13.26.05.13.16.22.27.27.12.05.25.04.37-.02.22-.1.33-.35.28-.59,0-.03-.02-.06-.03-.09-.02-.05-.04-.1-.07-.14-.2-.41-.47-.77-.78-1.06.31-.59.85-1.06,1.52-1.25.64-.18,1.29-.09,1.86.24Z" fill="#5b4068" stroke-width="0"></path>
      <ellipse cx="63.85" cy="17.56" rx=".75" ry="1.15" transform="translate(-.63 32.65) rotate(-28.55)" fill="#fcfcfc" opacity=".4" stroke-width="0"></ellipse>
    </g>
    <g>
      <path d="m82.73,32.86c-.05.08-.1.16-.16.24-.09.11-.12.24-.09.36.02.12.09.23.21.31.2.13.48.1.66-.07.02-.02.05-.04.07-.07.03-.04.06-.08.09-.13.26-.38.44-.78.53-1.2.68-.04,1.37.17,1.88.63.48.44.74,1.04.74,1.68,0,.65-.29,1.26-.78,1.74-.5.48-1.15.75-1.84.78-.34.01-.66-.03-.96-.14-.17-.06-.32-.13-.47-.21-.14-.08-.27-.18-.39-.29-.02-.02-.04-.03-.06-.04-.09-.06-.2-.09-.31-.09-.13,0-.26.06-.37.16-.2.2-.21.5,0,.69.09.09.19.17.3.24-.03.04-.05.08-.08.11-.4.54-1.01.92-1.69,1.06-1.41.29-2.75-.55-2.98-1.85-.11-.63.05-1.28.45-1.83.16-.22.35-.4.57-.56.09.08.19.15.3.21.23.15.56.08.72-.14.09-.11.11-.24.09-.36,0-.07-.04-.13-.08-.19-.03-.05-.07-.09-.13-.12-.12-.08-.23-.16-.33-.25-.13-.12-.24-.25-.34-.39-.54-.79-.54-1.87.11-2.72.85-1.12,2.47-1.43,3.63-.69.56.36.92.9,1.03,1.54.01.08.02.16.03.24.01.17,0,.35-.03.51-.03.21-.1.41-.19.61l-.12.22Z" fill="#fee996" stroke-width="0"></path>
      <path d="m83.45,32.73c-.55-.96-1.53-2.39-3.13-2.38-1.95,0-1.78,3.08-1.18,3.75-1.78-.67-1.89-3.8-.49-4.75,1.5-1.02,3.55-.75,4.56.6.4.54.25,2.16.23,2.78Z" fill="#e5b572" opacity=".75" stroke-width="0"></path>
      <path d="m83.05,37.27c-.24.42-1.26,1.02-1.71,1.32-1.47,1-3.6.82-4.45-.59-1.35-2.25.4-4.28,1.68-3.57.06.03.12-.08.19-.12-.84.98-1.6,1.84-.54,2.88,1.15,1.13,3.37.7,3.18-.47-.07-.43,1.64.56,1.67.54Z" fill="#e5b572" opacity=".75" stroke-width="0"></path>
      <path d="m84.1,31.33c-.08-.95-.58-1.84-1.47-2.4-1.61-1.03-3.89-.59-5.08.97-.89,1.18-.92,2.66-.19,3.76-.28.22-.54.47-.75.76-.57.76-.79,1.67-.64,2.55.32,1.83,2.19,2.99,4.17,2.6.72-.14,1.37-.48,1.89-.95.17-.16.34-.34.48-.53.04-.06.09-.12.13-.18.43.15.89.21,1.37.2.94-.03,1.83-.4,2.52-1.03.02-.02.04-.04.06-.06.7-.67,1.08-1.53,1.1-2.44.01-.91-.35-1.74-1.03-2.36-.7-.63-1.62-.93-2.55-.89Zm2.54,3.29c0,.65-.29,1.26-.78,1.74-.5.48-1.15.75-1.84.78-.34.01-.66-.03-.96-.14-.17-.06-.32-.13-.47-.21-.14-.08-.27-.18-.39-.29-.02-.02-.04-.03-.06-.04-.09-.06-.2-.09-.31-.09-.13,0-.26.06-.37.16-.2.2-.21.5,0,.69.09.09.19.17.3.24-.03.04-.05.08-.08.11-.4.54-1.01.92-1.69,1.06-1.41.29-2.75-.55-2.98-1.85-.11-.63.05-1.28.45-1.83.16-.22.35-.4.57-.56.09.08.19.15.3.21.23.15.56.08.72-.14.09-.11.11-.24.09-.36,0-.07-.04-.13-.08-.19-.03-.05-.07-.09-.13-.12-.12-.08-.23-.16-.33-.25-.13-.12-.24-.25-.34-.39-.54-.79-.54-1.87.11-2.72.85-1.12,2.47-1.43,3.63-.69.56.36.92.9,1.03,1.54.01.08.02.16.03.24.01.17,0,.35-.03.51-.03.21-.1.41-.19.61-.04.07-.07.15-.12.22-.05.08-.1.16-.16.24-.09.11-.12.24-.09.36.02.12.09.23.21.31.2.13.48.1.66-.07.02-.02.05-.04.07-.07.03-.04.06-.08.09-.13.26-.38.44-.78.53-1.2.68-.04,1.37.17,1.88.63.48.44.74,1.04.74,1.68Z" fill="#5b4068" stroke-width="0"></path>
      <ellipse cx="84.21" cy="34.95" rx="1.16" ry=".75" transform="translate(8.34 85.5) rotate(-56.21)" fill="#fcfcfc" opacity=".4" stroke-width="0"></ellipse>
    </g>
    <g>
      <path d="m83.75,41.03c-.09.04-.18.08-.27.11-.13.05-.23.14-.28.25-.05.11-.06.24,0,.37.1.22.35.34.59.3.03,0,.06-.01.09-.02.05-.02.1-.04.15-.06.43-.18.81-.42,1.12-.72.59.33,1.05.87,1.21,1.54.16.63.04,1.26-.33,1.8-.37.53-.95.9-1.63,1.04-.68.13-1.39.01-1.98-.34-.29-.17-.53-.38-.73-.63-.11-.14-.2-.28-.27-.43-.07-.14-.13-.3-.17-.45,0-.02-.01-.05-.02-.07-.04-.1-.12-.18-.21-.24-.11-.07-.25-.09-.39-.07-.28.06-.46.31-.39.57.03.12.07.24.11.36-.04.02-.09.04-.13.05-.64.24-1.36.23-2.01-.02-1.34-.52-1.99-1.93-1.44-3.14.26-.59.76-1.04,1.41-1.28.26-.09.52-.15.79-.16.04.11.08.23.13.34.11.25.42.37.68.27.13-.05.23-.14.28-.25.03-.06.05-.13.04-.2,0-.06-.01-.11-.04-.17-.06-.13-.1-.26-.13-.39-.04-.17-.06-.33-.06-.5,0-.95.6-1.85,1.63-2.21,1.34-.48,2.87.13,3.42,1.36.27.6.27,1.25,0,1.83-.03.07-.07.14-.11.21-.09.15-.19.29-.31.41-.15.16-.32.29-.51.41l-.22.12Z" fill="#fee996" stroke-width="0"></path>
      <path d="m84.41,41.32c.08-1.09.07-2.81-1.27-3.67-1.63-1.04-3.22,1.63-3.09,2.5-1.11-1.52.56-4.19,2.27-4.23,1.83-.05,3.39,1.27,3.47,2.95.03.66-1,1.94-1.37,2.45Z" fill="#e5b572" opacity=".75" stroke-width="0"></path>
      <path d="m81.53,44.9c-.44.23-1.63.18-2.18.19-1.79.05-3.48-1.24-3.39-2.88.13-2.6,2.75-3.36,3.41-2.08.03.06.15,0,.22,0-1.25.37-2.37.67-2.08,2.11.32,1.55,2.43,2.39,2.92,1.31.18-.39,1.06,1.35,1.09,1.34Z" fill="#e5b572" opacity=".75" stroke-width="0"></path>
      <path d="m85.75,40.49c.47-.83.55-1.85.13-2.8-.77-1.72-2.92-2.58-4.79-1.91-1.41.5-2.27,1.73-2.27,3.05-.36.03-.71.1-1.06.23-.9.33-1.6.97-1.97,1.79-.76,1.7.14,3.68,2.02,4.4.68.26,1.41.34,2.11.21.24-.04.47-.1.7-.19.07-.03.14-.05.21-.08.28.35.62.66,1.03.9.81.48,1.76.65,2.68.49.03,0,.06-.01.08-.02.96-.19,1.77-.7,2.29-1.45.52-.75.68-1.64.47-2.52-.23-.9-.83-1.65-1.63-2.11Zm.27,4.11c-.37.53-.95.9-1.63,1.04-.68.13-1.39.01-1.98-.34-.29-.17-.53-.38-.73-.63-.11-.14-.2-.28-.27-.43-.07-.14-.13-.3-.17-.45,0-.02-.01-.05-.02-.07-.04-.1-.12-.18-.21-.24-.11-.07-.25-.09-.39-.07-.28.06-.46.31-.39.57.03.12.07.24.11.36-.04.02-.09.04-.13.05-.64.24-1.36.23-2.01-.02-1.34-.52-1.99-1.93-1.44-3.14.26-.59.76-1.04,1.41-1.28.26-.09.52-.15.79-.16.04.11.08.23.13.34.11.25.42.37.68.27.13-.05.23-.14.28-.25.03-.06.05-.13.04-.2,0-.06-.01-.11-.04-.17-.06-.13-.1-.26-.13-.39-.04-.17-.06-.33-.06-.5,0-.95.6-1.85,1.63-2.21,1.34-.48,2.87.13,3.42,1.36.27.6.27,1.25,0,1.83-.03.07-.07.14-.11.21-.09.15-.19.29-.31.41-.15.16-.32.29-.51.41-.07.04-.15.08-.22.12-.09.04-.18.08-.27.11-.13.05-.23.14-.28.25-.05.11-.06.24,0,.37.1.22.35.34.59.3.03,0,.06-.01.09-.02.05-.02.1-.04.15-.06.43-.18.81-.42,1.12-.72.59.33,1.05.87,1.21,1.54.16.63.04,1.26-.33,1.8Z" fill="#5b4068" stroke-width="0"></path>
      <ellipse cx="83.81" cy="43.57" rx="1.17" ry=".74" transform="translate(-10.39 36.62) rotate(-23.25)" fill="#fcfcfc" opacity=".4" stroke-width="0"></ellipse>
    </g>
    <g>
      <path d="m47.39,40.39c-.02.1-.04.21-.08.31-.05.15-.03.3.04.42.07.13.19.23.34.27.27.08.55-.04.67-.28.02-.03.03-.06.04-.1.02-.06.03-.11.05-.17.13-.49.15-.98.09-1.46.71-.25,1.51-.24,2.24.11.69.33,1.2.9,1.45,1.6.25.7.2,1.46-.14,2.13-.34.67-.92,1.17-1.64,1.41-.35.12-.71.17-1.07.15-.2,0-.39-.04-.59-.09-.18-.05-.36-.11-.53-.19-.03-.01-.05-.02-.08-.03-.12-.04-.25-.04-.36,0-.14.05-.26.14-.33.28-.14.28-.02.61.26.75.14.07.27.12.41.17-.01.05-.02.1-.04.15-.21.71-.7,1.31-1.37,1.67-1.38.75-3.13.25-3.89-1.09-.37-.65-.46-1.41-.24-2.12.08-.28.21-.55.38-.78.13.05.26.1.4.14.3.09.62-.08.71-.37.05-.15.02-.3-.05-.42-.04-.07-.09-.13-.16-.18-.05-.04-.11-.07-.18-.09-.16-.05-.31-.1-.45-.17-.18-.09-.35-.19-.51-.31-.89-.69-1.31-1.86-.96-2.99.45-1.47,2.05-2.31,3.56-1.87.73.21,1.34.69,1.7,1.35.04.08.09.16.12.25.08.18.14.37.17.57.05.24.06.48.04.72l-.04.28Z" fill="#fee996" stroke-width="0"></path>
      <path d="m48.1,40.03c-.96-.87-2.56-2.12-4.26-1.62-2.06.61-.65,3.9.25,4.43-2.16-.18-3.51-3.54-2.41-5.01,1.19-1.57,3.46-1.91,5.07-.75.64.46,1.13,2.26,1.35,2.95Z" fill="#e5b572" opacity=".75" stroke-width="0"></path>
      <path d="m49.49,45.08c-.08.53-.93,1.5-1.28,1.97-1.16,1.54-3.49,2-4.95.74-2.32-2.02-1.28-4.77.36-4.39.08.02.1-.12.15-.18-.5,1.32-.97,2.49.57,3.29,1.66.87,3.85-.29,3.18-1.49-.24-.44,1.96.1,1.98.07Z" fill="#e5b572" opacity=".75" stroke-width="0"></path>
      <path d="m48.23,38.31c-.46-1-1.35-1.82-2.51-2.16-2.12-.62-4.35.56-4.99,2.62-.48,1.55.09,3.17,1.3,4.14-.21.32-.38.68-.49,1.06-.3,1-.18,2.06.34,2.97,1.07,1.89,3.51,2.58,5.44,1.53.7-.38,1.26-.94,1.62-1.62.12-.23.22-.47.3-.72.02-.08.04-.15.06-.23.51.03,1.03-.04,1.53-.21.98-.33,1.78-1,2.26-1.89.01-.03.03-.06.04-.08.47-.94.54-2,.19-2.99-.35-.99-1.07-1.78-2.03-2.24-.99-.47-2.09-.51-3.05-.18Zm4,2.79c.25.7.2,1.46-.14,2.13-.34.67-.92,1.17-1.64,1.41-.35.12-.71.17-1.07.15-.2,0-.39-.04-.59-.09-.18-.05-.36-.11-.53-.19-.03-.01-.05-.02-.08-.03-.12-.04-.25-.04-.36,0-.14.05-.26.14-.33.28-.14.28-.02.61.26.75.14.07.27.12.41.17-.01.05-.02.1-.04.15-.21.71-.7,1.31-1.37,1.67-1.38.75-3.13.25-3.89-1.09-.37-.65-.46-1.41-.24-2.12.08-.28.21-.55.38-.78.13.05.26.1.4.14.3.09.62-.08.71-.37.05-.15.02-.3-.05-.42-.04-.07-.09-.13-.16-.18-.05-.04-.11-.07-.18-.09-.16-.05-.31-.1-.45-.17-.18-.09-.35-.19-.51-.31-.89-.69-1.31-1.86-.96-2.99.45-1.47,2.05-2.31,3.56-1.87.73.21,1.34.69,1.7,1.35.04.08.09.16.12.25.08.18.14.37.17.57.05.24.06.48.04.72,0,.09-.02.18-.04.28-.02.1-.04.21-.08.31-.05.15-.03.3.04.42.07.13.19.23.34.27.27.08.55-.04.67-.28.02-.03.03-.06.04-.1.02-.06.03-.11.05-.17.13-.49.15-.98.09-1.46.71-.25,1.51-.24,2.24.11.69.33,1.2.9,1.45,1.6Z" fill="#5b4068" stroke-width="0"></path>
      <ellipse cx="49.79" cy="42.2" rx="1.28" ry=".86" transform="translate(-.56 83.73) rotate(-79.8)" fill="#fcfcfc" opacity=".4" stroke-width="0"></ellipse>
    </g>
    <g>
      <path d="m40.74,41.23c-.1.05-.2.09-.3.13-.15.05-.26.16-.32.29-.06.13-.08.28-.02.43.09.26.36.4.63.36.03,0,.07-.01.1-.03.06-.02.11-.04.17-.06.48-.19.9-.46,1.26-.8.63.41,1.09,1.05,1.24,1.83.13.73-.03,1.47-.47,2.09-.43.61-1.09,1.02-1.84,1.15-.75.13-1.51-.03-2.14-.45-.3-.21-.56-.46-.76-.75-.11-.16-.2-.33-.27-.51-.07-.17-.12-.35-.16-.53,0-.03-.01-.05-.02-.08-.04-.12-.12-.22-.21-.28-.12-.08-.27-.12-.43-.09-.31.06-.52.35-.46.65.03.15.06.29.1.42-.05.02-.1.04-.14.06-.72.26-1.5.23-2.19-.09-1.43-.64-2.06-2.3-1.4-3.7.32-.68.89-1.19,1.61-1.45.28-.1.58-.16.87-.17.03.13.07.27.12.4.11.29.44.44.73.34.15-.05.26-.16.32-.29.04-.07.06-.15.06-.23,0-.07,0-.13-.03-.2-.05-.15-.1-.3-.12-.45-.03-.2-.05-.39-.04-.59.04-1.11.76-2.13,1.9-2.53,1.49-.52,3.13.24,3.66,1.69.26.7.22,1.46-.11,2.13-.04.08-.08.16-.13.24-.1.17-.23.33-.36.47-.17.18-.36.33-.57.46l-.25.13Z" fill="#fee996" stroke-width="0"></path>
      <path d="m41.46,41.58c.15-1.27.23-3.27-1.18-4.31-1.72-1.26-3.61,1.79-3.52,2.82-1.13-1.8.84-4.86,2.71-4.86,2,0,3.63,1.58,3.63,3.54,0,.77-1.2,2.23-1.64,2.81Z" fill="#e5b572" opacity=".75" stroke-width="0"></path>
      <path d="m38.11,45.66c-.49.25-1.79.16-2.38.16-1.96,0-3.72-1.55-3.54-3.45.29-3.02,3.19-3.83,3.84-2.32.03.07.16,0,.24,0-1.39.39-2.63.71-2.38,2.4.27,1.82,2.52,2.85,3.12,1.61.22-.45,1.08,1.6,1.11,1.6Z" fill="#e5b572" opacity=".75" stroke-width="0"></path>
      <path d="m42.96,40.67c.56-.96.7-2.13.3-3.25-.74-2.03-3.04-3.09-5.12-2.37-1.57.54-2.57,1.95-2.65,3.48-.39.02-.79.1-1.16.24-1,.36-1.8,1.08-2.25,2.03-.93,1.96-.05,4.28,1.96,5.18.73.33,1.52.43,2.29.31.26-.04.52-.1.77-.2.08-.03.15-.06.23-.09.28.42.64.78,1.08,1.08.85.58,1.88.81,2.9.65.03,0,.06-.01.09-.02,1.05-.19,1.97-.76,2.58-1.62.61-.86.84-1.89.65-2.92-.2-1.06-.82-1.94-1.66-2.51Zm.07,4.79c-.43.61-1.09,1.02-1.84,1.15-.75.13-1.51-.03-2.14-.45-.3-.21-.56-.46-.76-.75-.11-.16-.2-.33-.27-.51-.07-.17-.12-.35-.16-.53,0-.03-.01-.05-.02-.08-.04-.12-.12-.22-.21-.28-.12-.08-.27-.12-.43-.09-.31.06-.52.35-.46.65.03.15.06.29.1.42-.05.02-.1.04-.14.06-.72.26-1.5.23-2.19-.09-1.43-.64-2.06-2.3-1.4-3.7.32-.68.89-1.19,1.61-1.45.28-.1.58-.16.87-.17.03.13.07.27.12.4.11.29.44.44.73.34.15-.05.26-.16.32-.29.04-.07.06-.15.06-.23,0-.07,0-.13-.03-.2-.05-.15-.1-.3-.12-.45-.03-.2-.05-.39-.04-.59.04-1.11.76-2.13,1.9-2.53,1.49-.52,3.13.24,3.66,1.69.26.7.22,1.46-.11,2.13-.04.08-.08.16-.13.24-.1.17-.23.33-.36.47-.17.18-.36.33-.57.46-.08.05-.16.09-.25.13-.1.05-.2.09-.3.13-.15.05-.26.16-.32.29-.06.13-.08.28-.02.43.09.26.36.4.63.36.03,0,.07-.01.1-.03.06-.02.11-.04.17-.06.48-.19.9-.46,1.26-.8.63.41,1.09,1.05,1.24,1.83.13.73-.03,1.47-.47,2.09Z" fill="#5b4068" stroke-width="0"></path>
      <ellipse cx="40.67" cy="44.19" rx="1.3" ry=".84" transform="translate(-15 21.66) rotate(-25.35)" fill="#fcfcfc" opacity=".4" stroke-width="0"></ellipse>
    </g>
    <g>
      <path d="m67.78,23.95c.03-.1.07-.2.11-.3.06-.14.06-.3,0-.43-.06-.13-.16-.24-.31-.3-.26-.11-.55-.01-.7.2-.02.03-.04.06-.05.09-.02.05-.05.11-.07.16-.18.48-.26.96-.25,1.44-.73.18-1.53.08-2.22-.35-.65-.4-1.09-1.02-1.26-1.75-.17-.73-.04-1.47.37-2.1.41-.63,1.04-1.07,1.79-1.23.36-.08.73-.09,1.08-.04.2.03.39.08.57.15.18.07.34.15.51.25.02.02.05.03.08.04.12.05.24.06.36.04.14-.03.27-.11.36-.25.17-.26.09-.61-.18-.77-.13-.08-.26-.15-.39-.21.02-.05.03-.1.06-.14.29-.69.84-1.23,1.55-1.51,1.46-.6,3.14.08,3.74,1.5.3.69.3,1.45,0,2.14-.12.27-.27.52-.46.74-.12-.07-.25-.13-.38-.18-.29-.12-.63.01-.75.3-.06.14-.06.29,0,.43.03.07.08.14.13.2.05.05.1.08.17.11.15.06.29.14.43.22.17.11.33.23.47.37.81.78,1.1,1.99.63,3.07-.61,1.42-2.3,2.08-3.75,1.48-.7-.29-1.25-.83-1.54-1.52-.04-.08-.07-.17-.09-.26-.06-.19-.1-.39-.11-.58-.02-.24,0-.48.04-.72l.07-.27Z" fill="#fee996" stroke-width="0"></path>
      <path d="m67.04,24.23c.86.97,2.31,2.38,4.06,2.06,2.12-.38,1.08-3.81.25-4.43,2.12.41,3.1,3.89,1.84,5.23-1.35,1.44-3.65,1.53-5.12.21-.59-.52-.87-2.37-1.02-3.08Z" fill="#e5b572" opacity=".75" stroke-width="0"></path>
      <path d="m66.22,19.07c.14-.52,1.09-1.39,1.49-1.82,1.32-1.4,3.69-1.62,5-.21,2.09,2.25.74,4.88-.85,4.33-.08-.03-.11.11-.17.17.64-1.26,1.24-2.37-.2-3.33-1.55-1.04-3.86-.12-3.32,1.15.19.46-1.94-.31-1.96-.28Z" fill="#e5b572" opacity=".75" stroke-width="0"></path>
      <path d="m66.71,25.93c.35,1.05,1.14,1.95,2.26,2.41,2.03.84,4.39-.09,5.25-2.08.65-1.49.27-3.16-.83-4.26.25-.3.46-.63.61-1,.41-.96.4-2.03,0-2.99-.85-1.99-3.2-2.93-5.24-2.1-.74.3-1.36.8-1.79,1.44-.15.21-.27.44-.37.69-.03.07-.06.15-.09.22-.51-.08-1.03-.07-1.54.05-1.01.22-1.88.8-2.45,1.64-.02.03-.03.05-.05.08-.57.88-.76,1.93-.52,2.95.24,1.02.86,1.88,1.77,2.44.93.57,2.02.73,3.02.5Zm-3.67-3.19c-.17-.73-.04-1.47.37-2.1.41-.63,1.04-1.07,1.79-1.23.36-.08.73-.09,1.08-.04.2.03.39.08.57.15.18.07.34.15.51.25.02.02.05.03.08.04.12.05.24.06.36.04.14-.03.27-.11.36-.25.17-.26.09-.61-.18-.77-.13-.08-.26-.15-.39-.21.02-.05.03-.1.06-.14.29-.69.84-1.23,1.55-1.51,1.46-.6,3.14.08,3.74,1.5.3.69.3,1.45,0,2.14-.12.27-.27.52-.46.74-.12-.07-.25-.13-.38-.18-.29-.12-.63.01-.75.3-.06.14-.06.29,0,.43.03.07.08.14.13.2.05.05.1.08.17.11.15.06.29.14.43.22.17.11.33.23.47.37.81.78,1.1,1.99.63,3.07-.61,1.42-2.3,2.08-3.75,1.48-.7-.29-1.25-.83-1.54-1.52-.04-.08-.07-.17-.09-.26-.06-.19-.1-.39-.11-.58-.02-.24,0-.48.04-.72.02-.09.04-.18.07-.27.03-.1.07-.2.11-.3.06-.14.06-.3,0-.43-.06-.13-.16-.24-.31-.3-.26-.11-.55-.01-.7.2-.02.03-.04.06-.05.09-.02.05-.05.11-.07.16-.18.48-.26.96-.25,1.44-.73.18-1.53.08-2.22-.35-.65-.4-1.09-1.02-1.26-1.75Z" fill="#5b4068" stroke-width="0"></path>
      <ellipse cx="65.6" cy="21.9" rx="1.28" ry=".86" transform="translate(25.68 78.37) rotate(-73.21)" fill="#fcfcfc" opacity=".4" stroke-width="0"></ellipse>
    </g>
    <g>
      <path d="m74.35,26.02c-.1.05-.2.09-.3.13-.15.05-.26.16-.32.29-.06.13-.08.28-.02.43.09.26.36.4.63.36.03,0,.07-.01.1-.03.06-.02.11-.04.17-.06.48-.19.9-.46,1.26-.8.63.41,1.09,1.05,1.24,1.83.13.73-.03,1.47-.47,2.09-.43.61-1.09,1.02-1.84,1.15-.75.13-1.51-.03-2.14-.45-.3-.21-.56-.46-.76-.75-.11-.16-.2-.33-.27-.51-.07-.17-.12-.35-.16-.53,0-.03-.01-.05-.02-.08-.04-.12-.12-.22-.21-.28-.12-.08-.27-.12-.43-.09-.31.06-.52.35-.46.65.03.15.06.29.1.42-.05.02-.1.04-.14.06-.72.26-1.5.23-2.19-.09-1.43-.64-2.06-2.3-1.4-3.7.32-.68.89-1.19,1.61-1.45.28-.1.58-.16.87-.17.03.13.07.27.12.4.11.29.44.44.73.34.15-.05.26-.16.32-.29.04-.07.06-.15.06-.23,0-.07,0-.13-.03-.2-.05-.15-.1-.3-.12-.45-.03-.2-.05-.39-.04-.59.04-1.11.76-2.13,1.9-2.53,1.49-.52,3.13.24,3.66,1.69.26.7.22,1.46-.11,2.13-.04.08-.08.16-.13.24-.1.17-.23.33-.36.47-.17.18-.36.33-.57.46l-.25.13Z" fill="#fee996" stroke-width="0"></path>
      <path d="m75.07,26.37c.15-1.27.23-3.27-1.18-4.31-1.72-1.26-3.61,1.79-3.52,2.82-1.13-1.8.84-4.86,2.71-4.86,2,0,3.63,1.58,3.63,3.54,0,.77-1.2,2.23-1.64,2.81Z" fill="#e5b572" opacity=".75" stroke-width="0"></path>
      <path d="m71.72,30.45c-.49.25-1.79.16-2.38.16-1.96,0-3.72-1.55-3.54-3.45.29-3.02,3.19-3.83,3.84-2.32.03.07.16,0,.24,0-1.39.39-2.63.71-2.38,2.4.27,1.82,2.52,2.85,3.12,1.61.22-.45,1.08,1.6,1.11,1.6Z" fill="#e5b572" opacity=".75" stroke-width="0"></path>
      <path d="m76.57,25.46c.56-.96.7-2.13.3-3.25-.74-2.03-3.04-3.09-5.12-2.37-1.57.54-2.57,1.95-2.65,3.48-.39.02-.79.1-1.16.24-1,.36-1.8,1.08-2.25,2.03-.93,1.96-.05,4.28,1.96,5.18.73.33,1.52.43,2.29.31.26-.04.52-.1.77-.2.08-.03.15-.06.23-.09.28.42.64.78,1.08,1.08.85.58,1.88.81,2.9.65.03,0,.06-.01.09-.02,1.05-.19,1.97-.76,2.58-1.62.61-.86.84-1.89.65-2.92-.2-1.06-.82-1.94-1.66-2.51Zm.07,4.79c-.43.61-1.09,1.02-1.84,1.15-.75.13-1.51-.03-2.14-.45-.3-.21-.56-.46-.76-.75-.11-.16-.2-.33-.27-.51-.07-.17-.12-.35-.16-.53,0-.03-.01-.05-.02-.08-.04-.12-.12-.22-.21-.28-.12-.08-.27-.12-.43-.09-.31.06-.52.35-.46.65.03.15.06.29.1.42-.05.02-.1.04-.14.06-.72.26-1.5.23-2.19-.09-1.43-.64-2.06-2.3-1.4-3.7.32-.68.89-1.19,1.61-1.45.28-.1.58-.16.87-.17.03.13.07.27.12.4.11.29.44.44.73.34.15-.05.26-.16.32-.29.04-.07.06-.15.06-.23,0-.07,0-.13-.03-.2-.05-.15-.1-.3-.12-.45-.03-.2-.05-.39-.04-.59.04-1.11.76-2.13,1.9-2.53,1.49-.52,3.13.24,3.66,1.69.26.7.22,1.46-.11,2.13-.04.08-.08.16-.13.24-.1.17-.23.33-.36.47-.17.18-.36.33-.57.46-.08.05-.16.09-.25.13-.1.05-.2.09-.3.13-.15.05-.26.16-.32.29-.06.13-.08.28-.02.43.09.26.36.4.63.36.03,0,.07-.01.1-.03.06-.02.11-.04.17-.06.48-.19.9-.46,1.26-.8.63.41,1.09,1.05,1.24,1.83.13.73-.03,1.47-.47,2.09Z" fill="#5b4068" stroke-width="0"></path>
      <ellipse cx="74.28" cy="28.98" rx="1.3" ry=".84" transform="translate(-5.26 34.59) rotate(-25.35)" fill="#fcfcfc" opacity=".4" stroke-width="0"></ellipse>
    </g>
    <g>
      <path d="m76.51,40.97c-.1.05-.2.09-.3.13-.15.05-.26.16-.32.29-.06.13-.08.28-.02.43.09.26.36.4.63.36.03,0,.07-.01.1-.03.06-.02.11-.04.17-.06.48-.19.9-.46,1.26-.8.63.41,1.09,1.05,1.24,1.83.13.73-.03,1.47-.47,2.09-.43.61-1.09,1.02-1.84,1.15-.75.13-1.51-.03-2.14-.45-.3-.21-.56-.46-.76-.75-.11-.16-.2-.33-.27-.51-.07-.17-.12-.35-.16-.53,0-.03-.01-.05-.02-.08-.04-.12-.12-.22-.21-.28-.12-.08-.27-.12-.43-.09-.31.06-.52.35-.46.65.03.15.06.29.1.42-.05.02-.1.04-.14.06-.72.26-1.5.23-2.19-.09-1.43-.64-2.06-2.3-1.4-3.7.32-.68.89-1.19,1.61-1.45.28-.1.58-.16.87-.17.03.13.07.27.12.4.11.29.44.44.73.34.15-.05.26-.16.32-.29.04-.07.06-.15.06-.23,0-.07,0-.13-.03-.2-.05-.15-.1-.3-.12-.45-.03-.2-.05-.39-.04-.59.04-1.11.76-2.13,1.9-2.53,1.49-.52,3.13.24,3.66,1.69.26.7.22,1.46-.11,2.13-.04.08-.08.16-.13.24-.1.17-.23.33-.36.47-.17.18-.36.33-.57.46l-.25.13Z" fill="#fee996" stroke-width="0"></path>
      <path d="m77.22,41.32c.15-1.27.23-3.27-1.18-4.31-1.72-1.26-3.61,1.79-3.52,2.82-1.13-1.8.84-4.86,2.71-4.86,2,0,3.63,1.58,3.63,3.54,0,.77-1.2,2.23-1.64,2.81Z" fill="#e5b572" opacity=".75" stroke-width="0"></path>
      <path d="m73.87,45.4c-.49.25-1.79.16-2.38.16-1.96,0-3.72-1.55-3.54-3.45.29-3.02,3.19-3.83,3.84-2.32.03.07.16,0,.24,0-1.39.39-2.63.71-2.38,2.4.27,1.82,2.52,2.85,3.12,1.61.22-.45,1.08,1.6,1.11,1.6Z" fill="#e5b572" opacity=".75" stroke-width="0"></path>
      <path d="m78.72,40.4c.56-.96.7-2.13.3-3.25-.74-2.03-3.04-3.09-5.12-2.37-1.57.54-2.57,1.95-2.65,3.48-.39.02-.79.1-1.16.24-1,.36-1.8,1.08-2.25,2.03-.93,1.96-.05,4.28,1.96,5.18.73.33,1.52.43,2.29.31.26-.04.52-.1.77-.2.08-.03.15-.06.23-.09.28.42.64.78,1.08,1.08.85.58,1.88.81,2.9.65.03,0,.06-.01.09-.02,1.05-.19,1.97-.76,2.58-1.62.61-.86.84-1.89.65-2.92-.2-1.06-.82-1.94-1.66-2.51Zm.07,4.79c-.43.61-1.09,1.02-1.84,1.15-.75.13-1.51-.03-2.14-.45-.3-.21-.56-.46-.76-.75-.11-.16-.2-.33-.27-.51-.07-.17-.12-.35-.16-.53,0-.03-.01-.05-.02-.08-.04-.12-.12-.22-.21-.28-.12-.08-.27-.12-.43-.09-.31.06-.52.35-.46.65.03.15.06.29.1.42-.05.02-.1.04-.14.06-.72.26-1.5.23-2.19-.09-1.43-.64-2.06-2.3-1.4-3.7.32-.68.89-1.19,1.61-1.45.28-.1.58-.16.87-.17.03.13.07.27.12.4.11.29.44.44.73.34.15-.05.26-.16.32-.29.04-.07.06-.15.06-.23,0-.07,0-.13-.03-.2-.05-.15-.1-.3-.12-.45-.03-.2-.05-.39-.04-.59.04-1.11.76-2.13,1.9-2.53,1.49-.52,3.13.24,3.66,1.69.26.7.22,1.46-.11,2.13-.04.08-.08.16-.13.24-.1.17-.23.33-.36.47-.17.18-.36.33-.57.46-.08.05-.16.09-.25.13-.1.05-.2.09-.3.13-.15.05-.26.16-.32.29-.06.13-.08.28-.02.43.09.26.36.4.63.36.03,0,.07-.01.1-.03.06-.02.11-.04.17-.06.48-.19.9-.46,1.26-.8.63.41,1.09,1.05,1.24,1.83.13.73-.03,1.47-.47,2.09Z" fill="#5b4068" stroke-width="0"></path>
      <ellipse cx="76.43" cy="43.93" rx="1.3" ry=".84" transform="translate(-11.45 36.95) rotate(-25.35)" fill="#fcfcfc" opacity=".4" stroke-width="0"></ellipse>
    </g>
    <path d="m88.68,47.17c0-.3.24-.54.54-.54h6.23c-.23-.83-1-1.44-1.9-1.44h-59.09c-1.09,0-1.98.89-1.98,1.98s.89,1.98,1.98,1.98h59.09c.9,0,1.67-.61,1.9-1.44h-6.23c-.3,0-.54-.24-.54-.54Zm-1.36.54h-.36c-.3,0-.54-.24-.54-.54s.24-.54.54-.54h.36c.3,0,.54.24.54.54s-.24.54-.54.54Z" fill="#fcfcfc" stroke-width="0"></path>
    <rect x="35.14" y="49.66" width="56.92" height="5.04" fill="#5b4068" opacity=".1" stroke-width="0"></rect>
    <path d="m31.68,47.17h0c0-1.69,1.36-3.05,3.04-3.05h58.06c1.68,0,3.04,1.37,3.04,3.05h0s-64.13,0-64.13,0Z" fill="#5b4068" opacity=".1" stroke-width="0"></path>
    <path d="m93.54,43.39h-59.09c-2.09,0-3.78,1.7-3.78,3.78s1.53,3.61,3.48,3.77l5.19,62.23c.04.46.43.83.9.83h47.12c.47,0,.86-.36.9-.83l5.19-62.22h.09c2.09,0,3.78-1.7,3.78-3.78s-1.7-3.78-3.78-3.78Zm-46.95,68.81l-.21-3.22c-.03-.5-.46-.87-.96-.84-.49.03-.87.46-.84.95l.2,3.11h-3.72l-5.11-61.25h9.69l3.07,61.25h-2.13Zm3.93,0l-1.02-20.42-2.04-40.82h5.94l.14,5.02c.01.49.41.88.9.88h.03c.5-.01.89-.43.88-.92l-.14-4.97h1.95l1.02,61.25h-7.65Zm17.11,0h-7.65l-1.02-61.25h9.7l-1.02,61.25Zm1.8,0l1.02-61.25h9.7l-3.07,61.25h-7.65Zm17.11,0h-1.21l.31-4.28c.04-.5-.34-.93-.83-.97-.49-.04-.93.34-.96.83l-.32,4.42h-1.15l.1-1.65c.03-.49-.35-.92-.84-.95-.5-.03-.92.35-.95.84l-.11,1.76h-1.68l3.07-61.25h1.36l-.12,2.02c-.03.5.35.93.84.95h.05c.48,0,.87-.37.9-.85l.13-2.13h6.53l-5.11,61.25Zm2.68-64.49h6.23c-.23.83-1,1.44-1.9,1.44h-59.09c-1.09,0-1.98-.89-1.98-1.98s.89-1.98,1.98-1.98h59.09c.9,0,1.67.61,1.9,1.44h-6.23c-.3,0-.54.24-.54.54s.24.54.54.54Z" fill="#5b4068" stroke-width="0"></path>
    <path d="m88.46,27.55c.01-.15.02-.31.02-.47,0-.03,0-.06,0-.09-.06-1.04-.52-2-1.32-2.7-.79-.7-1.82-1.05-2.89-1-.41.02-.79.1-1.16.23-.27-.32-.59-.6-.96-.82.47-.83.55-1.85.13-2.8-.77-1.72-2.92-2.58-4.79-1.91-1.14.41-1.91,1.28-2.18,2.3-.33-.22-.68-.39-1.06-.5.04-.6-.05-1.21-.3-1.78-.85-1.99-3.2-2.93-5.24-2.1-.72.29-1.32.77-1.75,1.39-.01-.2-.04-.39-.08-.59,0-.03-.01-.06-.02-.08-.23-.92-.8-1.69-1.59-2.16s-1.72-.59-2.61-.34c-.92.26-1.65.88-2.09,1.68-.87-.42-1.92-.45-2.87,0-1.57.75-2.35,2.57-1.91,4.24-.03,0-.05,0-.08.01-1.02-.9-2.55-1.24-3.93-.75-1.41.5-2.27,1.73-2.27,3.05-.36.03-.71.1-1.06.23-.41.15-.78.37-1.09.64-1.13.12-2.22.66-2.98,1.6-.7.86-1,1.91-.93,2.93-.53.38-.96.88-1.24,1.46-.11.23-.2.48-.27.73-.02.08-.04.16-.05.23-.51-.01-1.03.07-1.52.26-.97.36-1.75,1.06-2.19,1.97-.01.03-.03.06-.04.08-.37.81-.45,1.69-.23,2.53,14.53-10.88,36.84-12.25,50.57-7.47Z" fill="#fcfcfc" opacity=".25" stroke-width="0"></path>
  </g>
</svg></svg></g></g><defs><clipPath id="SvgjsClipPath1098"><rect width="1000" height="1000" x="0" y="0" rx="500" ry="500"></rect></clipPath></defs></svg>